<?xml version="1.0" encoding="UTF-8"?>
<svg id="Layer_1" xmlns="http://www.w3.org/2000/svg" version="1.1" viewBox="0 0 428.725192 205.799273">
  <!-- Generator: Adobe Illustrator 29.6.0, SVG Export Plug-In . SVG Version: 2.1.1 Build 207)  -->
  <defs>
    <style>
      .st0 {
        fill: #ad9e6e;
      }
    </style>
  </defs>
  <g>
    <path class="st0" d="M417.234994,102.771644c-5.265198,3.614868-8.452332,7.227417-10.412659,9.925171-1.128357,1.552368-1.231323,1.950439-3.610352,5.328369-1.303406,1.850586-2.227844,3.088379-2.958496,4.080078,1.433105-4.619385,2.389221-9.213135,2.955139-13.727539.684143-.714111,1.546387-1.571655,2.59552-2.51001,1.81311-1.621094,3.141235-2.554565,3.802795-3.062012.607483-.466064,5.328491-4.175659,6.980042-9.93457,1.438599-5.016235-.041443-9.53418-.893555-11.606689-3.868347,3.206421-5.738831,6.331665-6.732239,8.601562-1.186951,2.711792-1.15271,4.272095-3.184021,8.305664-.862244,1.712158-1.446045,2.581787-2.025757,4.063965.27063-5.193115.078125-10.241699-.450745-15.046387.939331-.939697,2.010376-1.98877,3.229614-3.137939,1.224182-1.154053,1.466125-1.34375,1.942322-1.909668,2.03064-2.411865,2.6922-4.97583,2.964844-6.050659.639832-2.523193.494202-4.546997.372864-6.056274-.175293-2.175293-.774292-5.932617-3.108398-10.22937-.803589,2.425415-1.627502,4.328003-2.249146,5.647705-.843689,1.790649-1.425781,2.743042-2.031616,4.598999-.334412,1.026001-.486633,1.746094-.90387,3.948975-.562317,2.96936-.949036,5.010986-1.189392,6.467529-.819214-4.626953-1.895935-8.959961-3.082397-12.900635,6.581299-7.088379,6.349243-11.232666,5.935486-12.945312-.220154-.911255-.845459-2.618408-2.09668-6.033081-.81665-2.229492-1.522217-4.054932-2.004883-5.283569-3.167969,4.682129-3.879333,8.740234-4.06842,10.933594-.232117,2.692017.076477,5.415283.417542,7.777466-.471985-1.3302-.947632-2.596558-1.419128-3.796509-.046814-.562256-.095337-1.141113-.146729-1.744629-.787659-9.255005-1.062805-10.835938-1.979431-12.824463-.93219-2.021729-1.298279-1.798828-4.324036-6.327881-2.126404-3.182861-3.695618-5.912598-4.714966-7.775879-3.365784,5.829956-2.709534,9.975342-2.307556,11.591064.346802,1.393066.980347,2.602051,2.248596,5.020996,1.303894,2.487061,2.587097,4.474609,5.124878,8.060059,1.158081,1.63623,2.572693,3.59668,4.217834,5.803589.745972,1.94458,1.496643,4.050659,2.220032,6.310181-1.804443-3.299072-5.00116-8.129639-9.379333-10.083008-.517029-.230591-1.513672-.629028-2.701416-1.514404-1.777161-1.324707-4.246033-5.584473-4.246033-5.584473-.4729.95813-1.293518,2.948853-1.214966,5.571655.022522.752563.175232,3.420532,1.870972,6.026733.144226.221436.495789.656738.86908,1.111816,0,0,.99292,1.210571,1.988037,2.193604,1.507141,1.48877,3.495422,2.453857,4.261475,2.834473.802368.398804,5.461304,2.713867,7.935669,4.733398.943298.77002,2.038269,1.897827,3.065247,3.548706.808044,3.459106,1.48291,7.140015,1.957336,10.979858-1.085083-2.7854-3.933472-9.2323-9.245789-12.838745-.573608-.389526-1.309082-.83606-2.557068-1.752563-2.894287-2.125854-4.984985-4.164307-6.272766-5.520264-.415222,1.861816-.378357,3.402832-.273132,4.433472.321838,3.152466,1.685303,5.493286,2.434875,6.75061.29834.500244.569519.903564.766785,1.185059,0,0,.881592,1.295166,1.78595,2.36438,1.368835,1.618164,3.264038,2.759155,3.993469,3.207397.763794.469238,5.199585,3.195557,7.485474,5.43042.783936.766479,1.664856,1.830811,2.472351,3.298828.222168,4.101562.171021,8.346436-.226807,12.677368-.109802-.671265-.233887-1.274536-.357666-1.798828-.528625-2.238281-1.249817-3.982056-1.702698-5.062134-.698914-1.666992-1.532715-3.655396-3.038879-5.761475-.949219-1.327393-2.987366-4.111328-6.732788-6.118042-3.619019-1.939331-7.023254-2.184448-8.859924-2.174683.611572,1.243652,1.59552,3.069824,3.045654,5.111328,1.354065,1.906006,2.076599,2.53833,5.304321,6.055176,0,0,3.262695,3.537964,7.32666,8.360107,1.194763,1.417847,2.356262,2.827148,3.51062,4.953491.329834.607544.600037,1.175415.841492,1.714233-.64325,4.048096-1.611572,8.149414-2.986023,12.264526.208191-2.677368.044739-6.174683-1.360229-9.865112-.995972-2.616455-2.213745-4.272705-4.539612-7.436523-2.589722-3.522705-5.120911-6.147461-6.982239-7.90918-1.108765,5.983887-.190918,10.162598.836487,12.857666,1.962036,5.145508,4.395142,6.98584,7.086121,12.112549,1.203796,2.293213,1.375488,6.65918,1.358887,9.287354-1.572144,3.406494-3.376709,6.775269-5.410706,10.100586,1.46405-6.203613.000061-12.106445-1.487244-15.354126-.289917-.633057-.688904-1.399902-1.28418-2.835815-1.379944-3.3302-2.117615-6.164795-2.519897-7.996094-1.315735,1.368774-2.078979,2.701782-2.520996,3.63501-1.291626,2.726562-1.366638,5.218262-1.39917,7.030762-.03302,1.831055.176575,3.223877.353638,4.36499.401611,2.589355.907043,3.694824,1.447937,5.856689.777283,3.106934.918457,5.560547,1.023804,7.388916.111145,1.932495.120667,4.502686-.234436,7.534668-2.5448,3.321045-5.323059,6.590454-8.338684,9.800171.881592-2.139526,1.709656-5.984741,2.045959-13.967163.174805-4.152832.227173-9.663818-.222534-16.184326-5.539856,5.746338-7.311707,10.919189-7.815796,14.792969-.704956,5.421143-.179077,18.319214-.949829,22.158203-2.244751,2.021606-4.570496,3.952148-6.96875,5.793945-.243225.110352-.478516.219482-.715942.329102,2.612183-5.002441,3.385986-11.158325,2.638123-15.455078-.112061-.644287-.371155-1.897705-.318298-3.648926.091675-3.024902,1.052307-5.449829,1.840576-7.015381-1.152649.181396-3.71344.755249-5.986877,2.86792-2.17688,2.022949-2.934265,4.382812-3.312378,5.611084-.449585,1.461304-.527161,2.598877-.664734,4.324707-.207886,2.610596.028259,3.802856.055054,6.031006.038147,3.201538-.391602,5.619019-.711731,7.42041-.178284,1.001831-.428833,2.175171-.77301,3.47168-1.102112.593384-2.005493,1.099365-2.643372,1.463379-8.410217,4.797729-8.765076,6.288818-13.176819,7.740967-.789795.26001-3.392456,1.072632-7.574829,2.47229-1.339233.44812-2.433533.820435-3.140991,1.062134,4.443115,2.906982,7.834106,3.192139,10.099854,2.922852,5.260071-.624756,7.352295-4.580078,12.64679-8.895996,1.761658-1.013184,3.494568-2.067261,5.196533-3.164551,1.27533-.434326,2.912109-.805908,4.809387-.765991,2.177917.045776,2.472412.587524,5.394287.880615,3.722717.373657,6.441406-.184204,7.228455-.359497,1.166016-.259888,2.504089-.55835,4.071899-1.379639,2.276184-1.191895,3.032959-2.436035,5.330872-4.530151,1.139221-1.038208,2.832581-2.44397,5.13092-3.893677-3.229797-2.097412-5.805481-2.091919-6.972778-1.983276-1.856873.173218-3.331299.930298-6.279785,2.444946-2.310913,1.186768-2.461243,1.548584-4.874146,2.736816-2.156311,1.062256-3.95697,1.719238-4.931763,2.071777-1.655273.598755-2.715637.891357-3.56427,1.134888,1.227295-.889038,2.43634-1.801147,3.627319-2.735474.103638-.075439.185303-.135254.185303-.135376.316956-.232544.832153-.618774,1.434082-1.109253.218933-.178223.694824-.572876,1.290161-1.103882,2.604431-2.179565,5.105225-4.478638,7.513489-6.875854.079834-.016602.150208-.034668.231445-.051025,2.672363-.539307,4.682251-.642822,5.438293-.694092,3.357178-.226074,8.817444-1.220459,12.105164-2.847168,1.682556-.832764,6.464294-3.645508,9.229309-12.565674-6.255371,1.241455-10.595032,3.301758-13.448975,5.006104-1.642578.980713-1.892029,1.305786-5.395935,3.469482-.842285.520264-1.565552.956665-2.209045,1.340332,2.309753-2.632812,4.478271-5.300781,6.485046-8.005127,2.331421-1.454468,4.813232-2.712158,4.813416-2.712402,8.267883-4.185791,10.132507-4.433838,12.707642-6.199097,3.099365-2.124878,6.95813-6.26355,9.163208-15.217896-.761292.435791-1.848511,1.066406-3.143982,1.842529-1.754883,1.052246-6.832092,4.095703-10.553284,6.833008-1.739624,1.280029-3.900574,3.027832-6.294312,5.345947,2.422791-4.138916,4.502869-8.343872,6.232361-12.604248.34137-.254272.706116-.51709,1.09314-.784668,2.245911-1.55249,4.052368-2.441895,4.727112-2.78772,2.996826-1.534302,7.627441-4.607544,10.016479-7.405151,1.222473-1.431763,4.523621-5.912354,3.599792-15.223755Z"/>
    <path class="st0" d="M92.907906,187.238563c-4.411804-1.452148-4.766663-2.943237-13.176819-7.740967-.637939-.364014-1.54126-.870117-2.643372-1.463379-.344177-1.296631-.594727-2.469849-.77301-3.47168-.32019-1.801392-.749878-4.218872-.711731-7.42041.026794-2.228149.262878-3.42041.055054-6.031006-.137634-1.72583-.215149-2.863403-.664734-4.324707-.378174-1.228271-1.135498-3.588135-3.312378-5.611084-2.273499-2.112671-4.83429-2.686523-5.986877-2.86792.788208,1.565552,1.748901,3.990479,1.840515,7.015381.052917,1.751221-.206238,3.004639-.318237,3.648926-.747925,4.296753.025879,10.452637,2.638123,15.455078-.237305-.109497-.472534-.218628-.715637-.329102-2.398376-1.841797-4.724182-3.772461-6.969116-5.794189-.770691-3.839111-.244934-16.736816-.949829-22.157959-.504028-3.873779-2.275879-9.046631-7.815796-14.792969-.449707,6.520508-.397339,12.031494-.222534,16.184326.336365,7.982056,1.164246,11.827393,2.045837,13.966919-3.015503-3.209351-5.793701-6.478271-8.33844-9.799072-.355286-3.032349-.345642-5.602905-.234558-7.535522.105408-1.828369.246521-4.281982,1.023865-7.388916.540833-2.161865,1.046326-3.267334,1.447876-5.856689.177063-1.141113.386719-2.533936.353699-4.36499-.032532-1.8125-.107605-4.304199-1.39917-7.030762-.442017-.933228-1.205261-2.266235-2.521057-3.63501-.402222,1.831299-1.139954,4.665894-2.519836,7.996094-.595276,1.435913-.994324,2.202759-1.284241,2.835815-1.487366,3.247803-2.951477,9.151245-1.487,15.355347-2.034058-3.325439-3.838684-6.69458-5.410889-10.10144-.016663-2.628052.154968-6.994263,1.358826-9.28772,2.69104-5.126709,5.124084-6.967041,7.086182-12.112549,1.027344-2.695068,1.94519-6.873779.836426-12.857666-1.861267,1.761719-4.392456,4.386475-6.982178,7.90918-2.325928,3.163818-3.54364,4.820068-4.539673,7.436523-1.404846,3.690186-1.568359,7.187256-1.360229,9.864624-1.37439-4.11499-2.342712-8.216187-2.985901-12.264404.241394-.538574.511597-1.106323.841431-1.713867,1.154358-2.126343,2.315796-3.535645,3.51062-4.953491,4.063965-4.822144,7.32666-8.360107,7.32666-8.360107,3.227661-3.516846,3.950195-4.14917,5.30426-6.055176,1.450134-2.041504,2.434082-3.867676,3.045654-5.111328-1.83667-.009766-5.240906.235352-8.859863,2.174683-3.745422,2.006714-5.783569,4.790649-6.732849,6.118042-1.506165,2.106079-2.339966,4.094482-3.038879,5.761475-.45282,1.080078-1.174011,2.823853-1.702698,5.062134-.123718.524048-.247742,1.127075-.357544,1.797974-.397827-4.330566-.448914-8.575439-.226746-12.676758.807434-1.468018,1.688293-2.532104,2.472229-3.298584,2.285828-2.234863,6.72168-4.961182,7.485413-5.43042.729431-.448242,2.624634-1.589233,3.99353-3.207397.904297-1.069214,1.78595-2.36438,1.78595-2.36438.197266-.281494.468445-.684814.766724-1.185059.749573-1.257324,2.113037-3.598145,2.434875-6.75061.105225-1.03064.142151-2.571655-.273071-4.433472-1.287842,1.355957-3.378479,3.394409-6.272827,5.520264-1.247986.916504-1.983398,1.363037-2.557007,1.752563-5.311951,3.606201-8.160339,10.052612-9.245605,12.838257.474426-3.839722,1.149292-7.520752,1.957336-10.979736,1.026917-1.650635,2.121765-2.778442,3.065063-3.54834,2.474304-2.019531,7.13324-4.334595,7.935608-4.733398.766113-.380615,2.754395-1.345703,4.261536-2.834473.995117-.983032,1.988037-2.193604,1.988037-2.193604.37323-.455078.724854-.890381.869019-1.111816,1.69574-2.606201,1.84845-5.27417,1.871033-6.026733.078552-2.622803-.742065-4.613525-1.214966-5.571655,0,0-2.468933,4.259766-4.246033,5.584473-1.187744.885376-2.184448,1.283813-2.701477,1.514404-4.37793,1.953247-7.574524,6.783447-9.378967,10.082275.723389-2.259399,1.473999-4.365234,2.219971-6.309814,1.644958-2.206665,3.05957-4.167114,4.217529-5.803223,2.537781-3.585449,3.821045-5.572998,5.124939-8.060059,1.268188-2.418945,1.901733-3.62793,2.248535-5.020996.401978-1.615723,1.058289-5.761108-2.307556-11.591064-1.019287,1.863281-2.588501,4.593018-4.714905,7.775879-3.025818,4.529053-3.391907,4.306152-4.324036,6.327881-.916687,1.988525-1.191772,3.569458-1.979492,12.824463-.051392.603638-.099976,1.182861-.14679,1.745117-.471497,1.199951-.947144,2.466431-1.419128,3.796631.341125-2.362427.64978-5.085938.417603-7.778076-.189087-2.193359-.900452-6.251465-4.06842-10.933594-.482605,1.228638-1.188232,3.054077-2.004883,5.283569-1.25116,3.414673-1.876526,5.121826-2.09668,6.033081-.413757,1.712646-.645813,5.856934,5.935608,12.945557-1.186523,3.940674-2.263184,8.273682-3.082397,12.900757-.240417-1.456665-.627075-3.498413-1.189453-6.467896-.417297-2.202881-.569519-2.922974-.90387-3.948975-.605835-1.855957-1.187927-2.80835-2.031677-4.598999-.621582-1.319702-1.445557-3.22229-2.249146-5.647705-2.334106,4.296753-2.933105,8.054077-3.108398,10.22937-.121338,1.509277-.266968,3.533081.372864,6.056274.272644,1.074829.934265,3.638794,2.964844,6.050659.476257.565918.71814.755615,1.942383,1.909668,1.219299,1.14917,2.290405,2.198486,3.229736,3.138062-.52887,4.80481-.721313,9.853394-.450684,15.046631-.579773-1.482422-1.163635-2.351929-2.02594-4.064331-2.031372-4.033569-1.997131-5.593872-3.184082-8.305664-.993347-2.269897-2.863892-5.395142-6.732178-8.601562-.852112,2.07251-2.332153,6.590454-.893555,11.606689,1.65155,5.758911,6.372559,9.468506,6.980042,9.93457.661499.507446,1.989685,1.440918,3.802795,3.062012,1.049194.938477,1.911499,1.795898,2.595642,2.510132.565979,4.514526,1.522156,9.108398,2.955322,13.727661-.730713-.991699-1.655273-2.229492-2.958862-4.080322-2.379028-3.37793-2.481934-3.776001-3.610291-5.328369-1.960327-2.697754-5.147461-6.310303-10.41272-9.925171-.923767,9.311401,2.377319,13.791992,3.599854,15.223755,2.389038,2.797607,7.019653,5.87085,10.016479,7.405151.674683.345825,2.481201,1.235229,4.727112,2.78772.387085.267578.751831.530518,1.093201.78479,1.729248,4.260132,3.809021,8.464844,6.231506,12.603394-2.393433-2.317871-4.554138-4.06543-6.293579-5.345215-3.72113-2.737305-8.79834-5.780762-10.553284-6.833008-1.29541-.776123-2.38269-1.406738-3.143982-1.842529,2.205139,8.954346,6.063843,13.093018,9.163208,15.217896,2.575195,1.765259,4.439758,2.013306,12.707703,6.199097.000183.000244,2.481384,1.257568,4.812439,2.71167,2.007019,2.70459,4.175598,5.372925,6.485657,8.005859-.643433-.383789-1.366577-.82019-2.20874-1.340332-3.503906-2.163696-3.753357-2.48877-5.395935-3.469482-2.853943-1.704346-7.193604-3.764648-13.448914-5.006104,2.765015,8.920166,7.546753,11.73291,9.229248,12.565674,3.287781,1.626709,8.747986,2.621094,12.105225,2.847168.756042.05127,2.765869.154785,5.438232.694092.081299.016357.151794.034424.231689.051025,2.407715,2.396729,4.907898,4.695557,7.51178,6.874512.596069.531738,1.072571.926758,1.291626,1.105225.601929.490479,1.117126.876709,1.434082,1.109253,0,.000122.082581.060669.187195.136841,1.190491.933838,2.398865,1.845459,3.625671,2.734131-.848633-.24353-1.908997-.536133-3.564453-1.13501-.974792-.352539-2.775452-1.009521-4.931824-2.071777-2.412903-1.188232-2.563171-1.550049-4.874146-2.736816-2.948425-1.514648-4.422913-2.271729-6.279785-2.444946-1.167236-.108643-3.742981-.114136-6.972778,1.983276,2.29834,1.449707,3.99176,2.855469,5.13092,3.893677,2.297974,2.094116,3.054688,3.338257,5.330872,4.530151,1.567871.821289,2.905884,1.119751,4.071899,1.379639.787109.175293,3.505737.733154,7.228516.359497,2.921814-.293091,3.216309-.834839,5.394287-.880615,1.897522-.039917,3.534363.331787,4.809753.766113,1.701721,1.097046,3.434509,2.151245,5.195923,3.164185,5.294678,4.316162,7.38678,8.271484,12.646973,8.89624,2.265808.269287,5.656799-.015869,10.099854-2.922852-.707397-.241699-1.801697-.614014-3.140991-1.062134-4.182373-1.399658-6.784973-2.21228-7.574768-2.47229Z"/>
  </g>
  <g>
    <g>
      <g>
        <rect class="st0" x="119.138685" y="38.457212" width="2.621787" height=".839116"/>
        <rect class="st0" x="122.645397" y="38.457212" width="2.648053" height=".839116"/>
        <path class="st0" d="M115.471928,41.124232c.126576.350556.253247.701112.379823,1.051644.024873.068882.070779.111282.120429.111282h7.966727l5.209817,11.114288,3.423689,7.303933v-7.627071h-2.383041l-5.128282-10.940486c.122014-.337855.244076-.675734.36609-1.01359.02593-.071787-.006386-.161629-.05815-.161701l-4.150923-.004994v-.001849l-.768529.000912-.768577-.000912v.001849l-4.150971.004994c-.051763.000072-.084032.089914-.058102.161701Z"/>
        <rect class="st0" x="122.645397" y="36.547605" width="2.648053" height=".978104"/>
        <rect class="st0" x="119.138685" y="36.547605" width="2.621787" height=".978104"/>
        <rect class="st0" x="107.627359" y="65.376505" width="3.485488" height="1.69936"/>
        <path class="st0" d="M134.325169,111.723095c-1.076229-3.134836-1.752756-7.017025-1.752756-11.80145v-31.021646h-25.998523v52.507333h7.538646v-7.815038l.062135-.054645c.172385-.180428,1.37543-1.397878,3.201365-1.275768.625579.041824,1.144751.230511,1.55204.443183.386257.136467.719071.3083.985811.475619-.139204-.052436-.288445-.098029-.442631-.139204.172577.126744.303474.240619.378046.310509-.512689-.193249-1.043769-.288565-1.57773-.280714-1.371492.017887-2.386306.692541-2.902212,1.130826v7.205232h5.432861v-7.815038l.062135-.054645c.172385-.180428,1.375526-1.397878,3.201365-1.275768.625579.041824,1.144751.230511,1.552088.443183.386209.136467.719071.3083.985763.475619-.139156-.052436-.288397-.098029-.442535-.139204.172481.126744.303378.240619.377998.310509-.512641-.193201-1.042761-.289069-1.577682-.280714-1.371492.017887-2.386306.692541-2.902309,1.130826v7.205232h12.266121v-9.684237ZM127.103347,106.97077h-13.307537v-1.443351h.316727v-9.715401l.073276-.054933c.252383-.216634,1.451394-1.199203,3.190561-1.083528.618617.041127,1.139517.211159,1.552184.4046.386017.116132.718687.262323.985331.404696-.149048-.047802-.310005-.088593-.476147-.125255.182661.116228.327387.224292.420206.299537-.515474-.165326-1.049339-.246645-1.586709-.240186-1.368371.01515-2.38136.582699-2.901876.956736v9.153734h5.432861v-9.715401l.073324-.054933c.252335-.216634,1.451346-1.199203,3.190561-1.083528.618569.041127,1.139565.211159,1.552184.4046.386017.116132.718687.262323.985283.404696-.149048-.047802-.309909-.088593-.476147-.125255.182661.116228.327387.224292.420254.299537-.515426-.165326-1.049435-.246645-1.586709-.240186-1.368323.01515-2.381408.582699-2.901924.956736v9.153734h5.044299v1.443351ZM117.890455,92.292821v-3.48628h5.118199v3.48628h-5.118199ZM127.103347,86.34523v1.443303h-13.307537v-1.443303h.353893v-12.500113c0-.862597.533481-1.639193,1.327412-1.932415.697703-.257785,1.432091-.166719,2.015127.24943l.530504.378791-.662361-.048186c-.038847-.002857-.077789-.005858-.117356-.005858h-.099445c-.909895,0-1.650045.740247-1.650045,1.650117v12.208236h3.246406v-12.500113c0-.862645.533481-1.639241,1.327412-1.932463.697607-.257689,1.432091-.166671,2.015127.249478l.5306.378791-.662457-.048186c-.038847-.002857-.077741-.005858-.117356-.005858h-.099445c-.909895,0-1.650045.740247-1.650045,1.650117v12.208236h3.246406v-12.500161c0-.862597.533481-1.639193,1.327412-1.932415.697607-.257689,1.432091-.166719,2.015127.249478l.530552.378791-.662409-.048186c-.038895-.002857-.077741-.005858-.117356-.005858h-.099445c-.909846,0-1.650045.740247-1.650045,1.650117v12.208236h2.42933Z"/>
        <rect class="st0" x="115.605611" y="38.457212" width="2.648101" height=".839116"/>
        <rect class="st0" x="115.605611" y="36.547605" width="2.648101" height=".978104"/>
        <path class="st0" d="M114.61154,50.560768c1.137692,0,2.059927.922259,2.059927,2.059903v9.805075h1.359536v-10.381844c0-1.137644-.922235-2.059879-2.059879-2.059879h0c-.555953,0-1.060047.220595-1.430651.57857.023673-.000816.04725-.001825.071067-.001825Z"/>
        <rect class="st0" x="129.862081" y="65.376505" width="2.710332" height="1.69936"/>
        <rect class="st0" x="118.744744" y="65.376505" width="3.48544" height="1.69936"/>
        <path class="st0" d="M76.378012,121.106572v.300761h28.553468c-.003217-18.661289-.006434-37.322553-.009604-55.983866h-1.357279c-.187174,0-.360232-.099758-.454059-.261795-.477492-.82471-.954983-1.649397-1.432475-2.474107-.097765-.16888.024009-.380279.219154-.380423l3.024659-.002257v-8.096976c0-1.396822,1.132362-2.52916,2.52916-2.52916h2.095749c1.623203-3.306813,3.246406-6.613578,4.869513-9.920366.015942-.047202.032652-.11594.028523-.197594-.013829-.2756-.253535-.470817-.450602-.626876-.301073-.238458-.41939-.209863-.555521-.403784-.118797-.169264-.15457-.355862-.166527-.484022v-.000024c0-.414108.314807-.749754.703129-.749754h.745385v-3.372381c-.363065-.210103-.615064-.650453-.695398-1.009652-.029243-.130825-.062423-.369715.409834-1.620034.475475-1.258698.615688-1.298865.681665-1.301338.24979-.009291.446952.484142.793163,1.350917.314134.78632.469425,1.187295.381408,1.570455-.0521.226621-.172529.487455-.346402.701784h8.997867c-.173585-.213656-.293775-.473962-.34477-.701784-.029243-.130825-.062423-.369715.409882-1.620034.475427-1.258698.61564-1.298865.681665-1.301338.24979-.009291.446904.484142.793163,1.350917.314086.78632.469377,1.187295.38136,1.570455-.081151.353365-.327963.790546-.685698,1.003578v3.378456h.745385c.388322,0,.703129.335646.703129.749754v.000024c-.012005.12816-.04773.314758-.166527.484022-.136083.193921-.2544.165326-.555521.403784-.197066.156059-.436772.351276-.450602.626876-.004082.081655.012629.150393.028475.197594,1.623155,3.306789,3.24631,6.613554,4.869513,9.920366h1.220139V14.42779h-1.803079l-60.551658,24.040658v.300785h14.274141v61.152412c0,11.719195-4.056471,18.029923-8.113806,21.184927Z"/>
        <path class="st0" d="M135.968636,115.463871c-.000384,1.981154-.000672,3.962308-.001056,5.943461h4.71864v-.300761c-1.666515-1.295936-3.332358-3.125785-4.717584-5.6427Z"/>
        <rect class="st0" x="113.186076" y="65.376505" width="3.48544" height="1.69936"/>
        <path class="st0" d="M122.194795,62.425746v-15.931509c0-1.137644-.922235-2.059879-2.059927-2.059879-.555905,0-1.059999.220595-1.430555.57857.023625-.000816.04725-.001801.071067-.001801,1.137644,0,2.059879.922235,2.059879,2.059903v15.354716h1.359536Z"/>
        <path class="st0" d="M126.358586,62.425746v-10.381844c0-1.137644-.922235-2.059879-2.059879-2.059879-.555953,0-1.060047.220595-1.430651.57857.023673-.000816.04725-.001825.071067-.001825,1.137692,0,2.059927.922259,2.059927,2.059903v9.805075h1.359536Z"/>
        <rect class="st0" x="124.303413" y="65.376505" width="3.48544" height="1.69936"/>
      </g>
      <path class="st0" d="M358.512877,68.819102c0,30.350636-18.33069,54.391304-55.142454,54.391304-36.810989,0-55.141679-24.040668-55.141679-54.391304s18.33069-54.391304,55.141679-54.391304c36.811764,0,55.142454,24.040668,55.142454,54.391304ZM307.126947,68.819102c0-30.200251,0-52.88823-3.756524-52.88823-3.755749,0-3.755749,22.687978-3.755749,52.88823,0,30.801791,0,52.889005,3.755749,52.889005,3.756524,0,3.756524-22.087214,3.756524-52.889005Z"/>
      <path class="st0" d="M192.187081,57.852625c39.216374,0,50.034016,17.879535,50.034016,32.454476,0,21.786444-22.687978,32.904855-48.530941,32.904855-35.309465,0-49.733246-10.818417-49.733246-27.646032,0-15.326091,11.268797-22.237599,22.987973-22.237599,13.372636,0,23.439128,8.714577,23.439128,22.537593,0,8.664966-4.296825,16.926063-18.220614,23.134482,13.985029,1.48447,25.733662-8.113813,25.733662-23.586412,0-14.123786-5.108438-30.201026-43.723272-30.201026V16.230867c41.469048,0,76.027363,5.860363,81.586957-4.206904h.299995c.901535,5.258823,1.35269,9.916882,1.35269,14.123786,0,40.717898-59.950898,25.842962-81.436572,21.936829v13.672631c14.123786-2.704604,26.143732-3.906134,36.210224-3.906134v.00155Z"/>
    </g>
    <g>
      <path class="st0" d="M155.869682,192.207192h-2.068836v-13.714236l-4.148669,1.523709v-1.868764l5.894978-2.212965h.322528v16.272256Z"/>
      <path class="st0" d="M173.610024,180.239585c0,.807976-.213311,1.527125-.639612,2.157449-.426408.630324-1.002923,1.123138-1.729546,1.479296.845343.363845,1.514421.893385,2.007662,1.590329.493027.696943.739648,1.486983.739648,2.369265,0,1.401573-.472743,2.517878-1.418121,3.34806-.945485.830182-2.189478,1.245273-3.731657,1.245273-1.557126,0-2.804748-.416799-3.74276-1.251252-.938119-.833599-1.407018-1.948195-1.407018-3.342082,0-.874595.239147-1.664635.717441-2.369265.478294-.703776,1.140113-1.237587,1.985348-1.601432-.719256-.356158-1.28659-.848972-1.701682-1.479296-.415411-.630324-.622957-1.346057-.622957-2.146346,0-1.364847.437511-2.446988,1.312534-3.248131.874809-.801143,2.027947-1.20086,3.459093-1.20086,1.423673,0,2.574889.399717,3.453541,1.20086.878759.801143,1.318085,1.883284,1.318085,3.248131ZM171.930442,187.791511c0-.904489-.287404-1.642429-.861997-2.212965-.574701-.571391-1.325452-.856659-2.252254-.856659-.927016,0-1.670293.281852-2.230154.844702-.559861.563704-.839684,1.305914-.839684,2.224923,0,.919862.272457,1.642429.817478,2.168552.545021.526978,1.303139.79004,2.274567.79004.963848,0,1.720151-.26477,2.269015-.795164.548651-.530394.823029-1.251252.823029-2.163428ZM168.838398,177.480852c-.808296,0-1.462641.25025-1.963142.750751-.500501.500501-.750751,1.181216-.750751,2.041292,0,.822495.246407,1.488691.739648,1.996025.493027.508188,1.151216.761855,1.974245.761855s1.481004-.253667,1.974245-.761855c.493027-.507334.739648-1.173529.739648-1.996025,0-.82335-.255802-1.49467-.767406-2.013107-.511711-.519291-1.160611-.778936-1.946487-.778936Z"/>
      <path class="st0" d="M188.925585,177.169106l-6.706904,15.038086h-2.157769l6.684697-14.504275h-8.764637v-1.690258h10.944613v1.156447Z"/>
      <path class="st0" d="M201.227037,176.001556v1.746628h-.378151c-1.601645.029039-2.877133.503917-3.826141,1.422926-.949222.919862-1.497873,2.213819-1.646165,3.881871.852602-.978795,2.016843-1.468193,3.492509-1.468193,1.408726,0,2.533999.497084,3.375712,1.490399.841499.994169,1.262355,2.277023,1.262355,3.848561,0,1.668906-.454273,3.003005-1.362498,4.004007-.908332,1.001002-2.126275,1.501503-3.65372,1.501503-1.549866,0-2.806776-.594452-3.770625-1.785063-.963955-1.189757-1.445879-2.722861-1.445879-4.599312v-.789186c0-2.980799.635662-5.259529,1.907519-6.835338,1.271644-1.574955,3.164323-2.381222,5.678037-2.418803h.367048ZM198.524247,183.298106c-.704523,0-1.353317.210962-1.94638.63374-.593384.422778-1.004845.953172-1.234597,1.590329v.75673c0,1.334954.300215,2.410262.900859,3.225924s1.349473,1.223067,2.246809,1.223067c.926802,0,1.655347-.340785,2.185527-1.023208.530074-.682424.795271-1.575809.795271-2.681011,0-1.112034-.268827-2.010544-.806374-2.697238-.537654-.684986-1.251252-1.028333-2.141114-1.028333Z"/>
      <path class="st0" d="M219.441297,184.966158h-11.144792v-1.679155h11.144792v1.679155Z"/>
      <path class="st0" d="M235.284049,192.207192h-10.610981v-1.479296l5.605759-6.228929c.830396-.941215,1.403175-1.70734,1.718443-2.296667.315055-.589327.472743-1.199152.472743-1.829476,0-.845556-.255802-1.538229-.767513-2.079726-.511604-.541498-1.193921-.812246-2.046523-.812246-1.023315,0-1.818586.291247-2.385813.872887-.567227.582494-.850894,1.392178-.850894,2.43076h-2.057626c0-1.490399.480003-2.69553,1.440328-3.615393.960219-.919008,2.244887-1.378513,3.854006-1.378513,1.505239,0,2.695317.394593,3.570339,1.184633.874916.789186,1.312427,1.840579,1.312427,3.152472,0,1.594599-1.015948,3.493257-3.047525,5.695119l-4.337852,4.70522h8.130683v1.679155Z"/>
      <path class="st0" d="M249.509515,185.30011c0,2.410262-.411568,4.200449-1.234597,5.37227-.823029,1.171821-2.10962,1.756878-3.859558,1.756878-1.727838,0-3.006849-.572245-3.837244-1.718443-.830609-1.145344-1.260594-2.8561-1.290167-5.132269v-2.74763c0-2.380368.411515-4.149203,1.234544-5.305651.823029-1.156447,2.11325-1.734671,3.870661-1.734671,1.742465,0,3.025318.557725,3.848454,1.67403.823029,1.115451,1.2457,2.838164,1.267907,5.166433v2.669053ZM247.451889,182.48586c0-1.742358-.244699-3.0124-.734096-3.809273-.489398-.796873-1.264384-1.195736-2.324639-1.195736-1.052995,0-1.820508.397155-2.302432,1.189757-.482031.79431-.73036,2.013961-.7452,3.659806v3.292544c0,1.750045.253987,3.041439.761961,3.875892.507761.834453,1.277195,1.251252,2.307877,1.251252,1.015842,0,1.770223-.392885,2.263464-1.178654.493027-.785769.750751-2.02421.773065-3.715322v-3.370267Z"/>
      <path class="st0" d="M264.647317,192.207192h-10.610981v-1.479296l5.605759-6.228929c.830396-.941215,1.403175-1.70734,1.718443-2.296667.315055-.589327.472743-1.199152.472743-1.829476,0-.845556-.255802-1.538229-.767513-2.079726-.511604-.541498-1.193921-.812246-2.046523-.812246-1.023315,0-1.818586.291247-2.385813.872887-.567227.582494-.850894,1.392178-.850894,2.43076h-2.057626c0-1.490399.480003-2.69553,1.440328-3.615393.960219-.919008,2.244887-1.378513,3.854006-1.378513,1.505239,0,2.695317.394593,3.570339,1.184633.874916.789186,1.312427,1.840579,1.312427,3.152472,0,1.594599-1.015948,3.493257-3.047525,5.695119l-4.337852,4.70522h8.130683v1.679155Z"/>
      <path class="st0" d="M276.792897,176.001556v1.746628h-.378151c-1.601645.029039-2.877133.503917-3.826141,1.422926-.949222.919862-1.497873,2.213819-1.646165,3.881871.852602-.978795,2.016843-1.468193,3.492509-1.468193,1.408726,0,2.533999.497084,3.375712,1.490399.841499.994169,1.262355,2.277023,1.262355,3.848561,0,1.668906-.454273,3.003005-1.362498,4.004007-.908332,1.001002-2.126275,1.501503-3.65372,1.501503-1.549866,0-2.806776-.594452-3.770625-1.785063-.963955-1.189757-1.445879-2.722861-1.445879-4.599312v-.789186c0-2.980799.635662-5.259529,1.907519-6.835338,1.271644-1.574955,3.164323-2.381222,5.678037-2.418803h.367048ZM274.090107,183.298106c-.704523,0-1.353317.210962-1.94638.63374-.593384.422778-1.004845.953172-1.234597,1.590329v.75673c0,1.334954.300215,2.410262.900859,3.225924.600644.815663,1.349473,1.223067,2.246809,1.223067.926802,0,1.655347-.340785,2.185527-1.023208.530074-.682424.795271-1.575809.795271-2.681011,0-1.112034-.268827-2.010544-.806374-2.697238-.537654-.684986-1.251252-1.028333-2.141114-1.028333Z"/>
    </g>
    <g>
      <path class="st0" d="M99.078777,133.00116c1.326948-.00179,3.111455.132935,6.634119.128184,2.653896-.003579,4.300902-.142932,5.673023-.144783.183296.136884.184838,1.280722-.04326,1.418564-1.143591.18425-1.921767.368411-2.470045.552261-.732135.229675-.914505.778851-1.0043,1.78568-.043388,1.921515-.06937,16.150978-.201878,20.177181-.132441,3.477676-.495146,6.086087-1.726989,8.4206-2.327853,4.304234-6.03042,6.688059-9.004559,6.69207-1.601211.00216-3.066216-.68233-3.524762-1.550481-.000124-.091959-.091955-.595189-.092078-.686341.136083-.777801.63709-2.517629.956531-3.112566,1.465437,1.004731,3.79958,1.962312,5.126529,1.960522,1.098665-.001482,1.921083-.276854,2.698333-1.147479,1.187036-1.465683,1.504871-3.250437,1.545421-7.276516.038204-5.765228.018336-20.497176-.167799-22.739028-.047583-1.189351-.186011-2.149893-1.467473-2.514387-.777924-.227638-1.555664-.318145-2.974879-.544918-.228592-.228379-.13886-1.281187.044066-1.418566Z"/>
      <path class="st0" d="M110.256933,143.371299c1.829494-.002467,5.352472-.373038,6.54105-.694883-.180577,1.281215-.314874,3.980873-.308148,8.96802.003456,2.562341.051286,3.9344.235384,4.666596.368196,1.463586,1.421617,2.606004,3.755272,2.602857,1.234989-.001666,2.56132-.461635,3.7038-1.469077.319933-.229522.456633-.549949.501995-1.007385.090349-.595435.086462-3.477614-.013267-9.83676-.000741-.549332-.184653-1.14359-.825385-1.325837s-1.647622-.318021-2.928838-.499404c-.091584-.320119.044313-1.235455.227177-1.418813,2.469979-.003331,6.359239-.328819,7.410748-.604501-.090103.777739-.134293,2.104749-.132072,3.751939l-.031603,10.660013c.001358,1.006706.231065,1.463771.871611,1.508886.686587.090226,1.372121-.001851,2.058523-.048756.04635.275007.001728,1.280969-.226247,1.510367-1.692244.688747-5.168378,1.700143-6.036961,1.838446-.091959.000124-.229399-.228781-.275625-.41183-.04579-.457313-.093619-1.829372-.094545-2.515835-.000185-.137131-.183358-.182864-.274387-.091589-2.605017,2.154061-4.617441,2.889219-6.035541,2.891132-4.52937.006109-5.494293-3.103866-5.498427-6.169156-.049004-2.24244.081649-7.046258-.012095-8.967992-.046967-.731978-.230818-1.28066-.825631-1.508545-.366407-.136638-1.236167-.272999-2.059947-.40902-.091584-.320119.044313-1.235455.273156-1.418875Z"/>
      <path class="st0" d="M134.086279,159.581837c.686279-.138057.95974-.732932,1.00467-1.51061.0893-1.37305.084919-4.621452.081032-7.503632-.002222-1.64719-.048875-2.745391-.049986-3.568583-.13874-.594722-.825138-1.142727-2.473254-1.826969-.092329-.274542.044622-1.006768.27272-1.144207,1.830054-.185579,4.57393-1.058453,5.716904-1.70048.046041.045514.229399.228378.229522.319933-.045363.457436-.089491,1.830022-.088442,2.608041.000123.091555.183296.136884.229214.091246,2.239165-1.8789,4.525359-2.980247,6.217722-2.98253,1.967433-.002653,3.432746.910523,4.487468,2.418759.871426,1.371755,1.239309,3.20116,1.242333,5.443259.003517,2.607917.009009,6.679914.057086,8.235083.000432.320242.184037.686217.412443.777061.824151.41109,1.464758.501378,2.426539.683192.13744.228905.092757,1.189694-.181136,1.464327-.640484.000864-2.059576-.134354-4.484382-.131084-2.058585.002776-3.431327.141759-4.529185.14324-.183419-.228037-.230011-1.280661-.001975-1.46408.869452-.092325,1.555668-.276361,1.829807-.36869.640239-.183168.776752-.641533.820881-2.013716-.003641-2.699876.0366-6.954642-.148794-8.647161-.093008-.777895-.414792-1.920897-1.284548-2.652169-.642093-.59364-1.511416-1.004266-2.838364-1.002476-1.326948.00179-2.790287.552693-3.795821,1.423222-.273892.275036-.456448.687081-.455214,1.602231.004319,3.202422.010367,7.68662.105164,9.791059.046468.960666.230073,1.32664.916783,1.508019.503539.137259,1.144208.273527,1.875906.317713.138247.228904.093625,1.235672-.135095,1.510244-.686464.000926-2.01279-.134417-4.575534-.130961-2.104564.002838-3.979853.142499-4.529185.14324-.183419-.228037-.184838-1.280722-.001975-1.46408.640361-.092016,1.14359-.184653,1.646696-.368443Z"/>
      <path class="st0" d="M164.793191,161.37314c-.868768.001172-2.195901-.13417-4.803818-.130653-1.967433.002653-3.797549.142253-4.529185.14324-.229275-.136822-.276859-1.326577-.047954-1.464018.868583-.138303,1.46371-.276237,2.011988-.460088.640982-.229955.777621-.595555.821498-1.556342.090416-1.143961.086528-4.026948.083196-6.49733l-.005985-4.437815c-.000309-.22909-.092885-.68634-.413497-.960574-.458114-.548312-1.327252-.821807-2.243238-1.140814-.183419-.22844-.001419-1.052282.181507-1.18966,1.417977-.093468,4.345396-.646346,6.174709-1.380854l.010922,8.098014c.003394,2.516362.007467,5.536479.056223,7.595002.001049.777616.230011,1.280661.916784,1.508825.640731.182247.915862.227049,2.013967.408679.137378.182926.001728,1.280969-.227116,1.464389ZM161.239181,138.135728c-.228843.18342-1.921021.322834-2.196338.140094-.68615-.364894-1.053174-.959308-1.237642-1.965364-.04635-.274604-.001605-1.189817.227177-1.418813.4109-.366776,1.462907-.871146,2.331675-.872317.732443-.000988,1.236166.272596,1.373483.409946.274633.273893.458607.91413.459225,1.371907.001172.869171-.363692,1.876371-.95758,2.334547Z"/>
      <path class="st0" d="M174.619065,146.581762c-.733179-1.142851-2.106847-1.689928-3.433795-1.688138-1.097858.001481-1.691993.276545-1.920836.459965-.502859.3669-1.278439,1.877605-1.91701,3.296972-.136885.182892-1.510738-.501316-1.465314-.913176.090165-.732163.820078-2.609028,1.13995-2.884126,1.965644-1.329198,4.892198-2.522964,6.081208-2.524568,2.013412-.002715,3.570746.955913,4.578682,2.464615.825385,1.325837,1.10249,2.835122,1.104835,4.573868.003146,2.332847-.175151,5.902545-.172683,7.732039.001358,1.006706.413863,1.829746,1.740811,1.827957.732443-.000988,1.052562-.092572,1.64682-.276484.000308.228283-.044129,1.372183-.226993,1.555541-1.050336,1.145256-2.69697,1.559678-3.840808,1.561221-1.280969.001728-2.059326-.546556-2.380494-1.232588-.183481-.274016-.276056-.731265-.321723-1.097426-.000062-.045979-.183234-.090905-.229152-.04567-2.42277,1.513329-4.251898,2.385372-5.532867,2.3871-.869575.001173-1.830919-.455712-2.51837-1.186422-.962084-1.00541-1.604543-2.468626-1.606641-4.023858-.001358-1.006706.683131-2.471711.911852-2.746283,1.554121-.825693,6.90542-2.068708,8.688508-2.985862.091897-.046103.274638-.320613.274514-.412169.090597-.411921.089979-.869697.089609-1.14396-.001172-.869171-.139661-1.875692-.690104-2.698547ZM174.993062,152.346434c-1.555299.550624-4.527335,1.515361-5.396168,2.065866-.228161.09146-.502057.961405-.501316,1.510738.002344,1.738342,1.23993,3.063624,3.207363,3.060971.594505-.000802,1.60084-.277229,2.28588-.735527.365914-.228777.502551-.595184.547852-1.098599.090786-.869699.086837-3.797858.085788-4.575474-.000123-.091152-.138246-.228097-.229398-.227975Z"/>
      <path class="st0" d="M187.088557,145.375194c-.091152.000123-.182864.182954-.182802.228934-.042458,2.01307-.037459,5.719248.01086,8.052034.002592,1.92226.095785,2.836883.279759,3.477121.36708,1.234497,1.603617,1.782162,2.792628,1.780559,1.281775-.001729,1.922013-.185703,2.882-.735525.137316.136946-.044129,1.372183-.181013,1.555479-1.095945,1.419581-3.062575,2.017546-4.618613,2.019645-1.875474.002529-3.340603-.773919-4.120194-2.236949-.642027-1.142974-.68961-2.331922-.693559-5.260081-.003517-2.607917.037032-6.6344.034564-8.464297-.000185-.137535-.092453-.366098-.275625-.411427l-2.562185-.179656c-.046411-.32018.227177-1.418813.455152-1.647807.68634-.092481,1.783828-.368225,2.149864-.506253.091091-.045699.228844-.183016.228597-.366127l-.005368-3.980441c.685163-.367146,2.468004-1.467411,3.016534-2.06306.182987-.091802.731513-.092542.869513-.046749-.09091.77774-.225203,2.882489-.220883,6.085314.000185.137131.091522.27414.22946.273954,2.149737-.002899,4.986621-.097878,5.718134-.19042-.136268.640669-.362824,1.921946-.453795,2.65411-1.05194-.044157-3.568705-.040763-5.353027-.038357Z"/>
      <path class="st0" d="M203.282455,146.543195c-.733986-1.14285-2.106847-1.689928-3.433795-1.688138-1.097858.001481-1.6928.276546-1.920836.459965-.502859.3669-1.279246,1.877606-1.917817,3.296973-.136885.182892-1.509931-.501318-1.465314-.913176.090971-.732164.820078-2.609028,1.13995-2.884126,1.965644-1.329198,4.892198-2.522964,6.082015-2.524569,2.013412-.002715,3.569939.955914,4.578682,2.464615.825385,1.325837,1.101684,2.835123,1.104029,4.573869.003146,2.332847-.175151,5.902545-.172683,7.732039.001358,1.006706.414669,1.829745,1.741618,1.827956.731636-.000987,1.051756-.092571,1.646014-.276483.000308.228283-.043322,1.372182-.226186,1.55554-1.051143,1.145257-2.697777,1.55968-3.841615,1.561222-1.280969.001728-2.059326-.546556-2.380494-1.232588-.183481-.274016-.27525-.731267-.321723-1.097426-.000062-.045979-.183234-.090905-.229152-.04567-2.42277,1.513329-4.251091,2.385371-5.532867,2.3871-.868768.001172-1.830112-.455713-2.517563-1.186424-.962084-1.00541-1.604543-2.468626-1.606641-4.023858-.001358-1.006706.683131-2.471711.911045-2.746282,1.554928-.825694,6.906226-2.068709,8.689314-2.985863.09109-.046102.273831-.320612.273707-.412167.090597-.411921.089979-.869697.089609-1.14396-.001172-.869171-.139661-1.875692-.689298-2.698548ZM203.655645,152.307869c-1.554492.550623-4.527335,1.515361-5.395362,2.065865-.228967.091461-.502057.961405-.501316,1.510738.002344,1.738342,1.239124,3.063625,3.206556,3.060972.594505-.000802,1.60084-.277229,2.286687-.735528.365914-.228777.502551-.595184.547852-1.098599.089979-.869697.08603-3.797857.084981-4.575472-.000123-.091152-.137439-.228099-.229398-.227975Z"/>
      <path class="st0" d="M238.633266,134.957258c-1.465067-.730065-3.478849-1.001613-5.629392-.998712-6.587955.008885-10.241955,4.90901-10.23165,12.550054.009379,6.95458,3.906903,13.354179,12.096876,13.343133,2.150543-.0029,3.934001-.645791,4.939597-1.470744,1.142604-.91629,2.284282-2.519044,3.516494-4.5801.274202-.045543,1.144393.410658,1.282018.775888-.454843,1.876897-2.463319,5.539408-3.514272,6.227291-1.326269.505143-4.299482,1.195617-7.135683,1.199443-10.248557.013822-15.975333-5.605693-15.988106-15.076634-.006726-4.987147,2.274285-9.9314,7.303367-12.63766,2.423017-1.330218,5.441279-2.111906,9.284992-2.11709,4.026017-.00543,7.092357.768052,9.197105.902345-.272041,1.64756-.679614,5.079628-.72201,7.138677-.182741.27451-1.555483.413896-1.555853.13923-.508289-3.65952-1.058049-4.573931-2.843482-5.39512Z"/>
      <path class="st0" d="M264.753408,151.530808c.004875,3.614623-1.409153,6.635847-4.242885,8.469973-1.280665.825324-3.475208,1.69786-5.396661,1.700451-6.817045.009194-9.248763-5.112218-9.25518-9.870678-.004874-3.61422,1.638178-6.086822,3.969672-7.691584,1.64571-1.10008,3.886356-1.881122,6.082879-1.884084,5.536076-.007466,8.835204,4.106068,8.842176,9.275922ZM252.208912,144.822225c-1.188768.77922-2.376425,2.382439-2.371735,5.859528.007281,5.398541,2.757204,9.009462,6.371827,9.004587,1.006706-.001358,2.013042-.276978,2.789732-.964491,1.142418-1.054228,1.734455-2.884524,1.730691-5.675552-.00722-5.353369-2.573847-8.827002-6.371581-8.82188-.731636.000987-1.554985.185208-2.148934.597808Z"/>
      <path class="st0" d="M263.850636,159.813165c.868521-.184282,1.462903-.276236,2.011988-.460088.502983-.274942.685476-.733369.730716-1.281957.181259-1.373174.177063-4.484444.166882-12.033126-.004381-3.248401-.012346-9.153927-.106279-10.617883-.046596-.457312-.09288-1.280846-.733611-1.463093-.412386-.136575-1.327591-.474623-2.471613-.610212-.229275-.136822-.184591-1.097611.043507-1.235454,2.537685-.157126,4.203512-.159372,6.954383-.454311.137193.045391.365908.365325.366094.50286-.319132.823624-.409235,1.601766-.406458,3.66035-.042894,2.287737-.037759,6.094892-.032391,10.075333.009626,7.13769.01376,10.202981.107385,11.437847.046777,1.189756.185517,1.784075,1.054656,2.057973.595559.182308.823965.273152,1.922008.408803.092268.228966.047584,1.189755-.226309,1.464387-.869575.001173-2.24188-.134108-4.804625-.130652-1.784322.002406-4.025832.142561-4.574358.143301-.138246-.228097-.230695-1.189508-.001975-1.46408Z"/>
      <path class="st0" d="M275.028533,159.813165c.868521-.184282,1.462903-.276236,2.011988-.460088.502983-.274942.685476-.733369.730716-1.281957.181259-1.373174.177063-4.484444.166882-12.033126-.004381-3.248401-.013545-10.043245-.107478-11.507201-.046596-.457312-.09288-1.280846-.733611-1.463093-.412386-.136575-1.327319-.272877-2.471341-.408465-.229275-.136822-.184591-1.097611.043507-1.235454,2.42222-.234779,4.447982-.4176,6.953792-.892298.137193.045391.365908.365325.366094.50286-.319132.823624-.409235,1.601766-.406458,3.66035-.042894,2.287737-.036241,7.22045-.030873,11.200891.009626,7.13769.01376,10.202981.107385,11.437847.046777,1.189756.185517,1.784075,1.054656,2.057973.595559.182308.823965.273152,1.922008.408803.092268.228966.047584,1.189755-.226309,1.464387-.869575.001173-2.24188-.134108-4.804625-.130652-1.784322.002406-4.025832.142561-4.574358.143301-.138246-.228097-.230695-1.189508-.001975-1.46408Z"/>
      <path class="st0" d="M300.508442,156.837123c.045667.366161-.181444,1.236043-.273157,1.418471-1.918429,2.245093-5.25644,3.393435-7.315831,3.396212-2.424806.00327-4.255289-.726705-5.676108-2.142892-1.878065-1.918924-2.705487-4.75482-2.709066-7.408717-.005491-4.071593,1.775128-6.819048,4.106746-8.332254,1.416805-.962639,3.474587-1.560324,5.030625-1.562422,4.483391-.006047,6.135888,3.926597,6.50575,6.625575.045358.13707.274756.365448.732315.502366.000308.228687-.272844,1.052652-.40979,1.189968-1.966754.506006-8.142821.880155-12.077501,1.022996-.183111.000247-.22872.274572-.228411.503662.047892,1.418038.737009,3.384545,1.928368,4.526778,1.327931,1.32516,2.838792,1.917628,4.943356,1.91479,1.830301-.002468,3.522669-.599257,5.213243-1.928488.046041.045917.183358.182864.22946.273954ZM288.190312,149.304638c.000123.091555.13837.320056.275501.319871,1.555294.043882,6.862901-.100811,7.731422-.28469.137008-.09174.228781-.229399.273707-.412167-.27741-2.333284-1.790863-4.847609-4.260842-4.844278-2.196523.002962-3.748977,2.064048-4.019789,5.221265Z"/>
      <path class="st0" d="M314.672546,143.09235c.732068.319255,1.601828.455214,2.608534.453856,1.601211-.00216,2.195161-.414759,2.789609-1.056046.13707-.045761.594875.273864.640978.365358.00074.548929-.637585,2.151004-1.140259,2.655036-.319748.366653-.685661.595834-1.646388.59713l-1.097858.001481c-.045979.000062-.091835.091679-.091712.183235.137687.411613.322031,1.326113.322957,2.012577.00432,3.202825-1.182531,4.80564-2.737027,5.951576-1.736553,1.329293-3.52032,1.743093-4.801104,1.881952-.137876.046165-.823471.093069-.960603.093254-.366099.091646-1.143221.458916-1.142295,1.14538.001172.868768.870495,1.279797,1.877324,1.369591,2.19677.180148,6.085902.358014,7.595896.905311,1.739951.59216,3.206067,2.100244,3.209337,4.52505.004011,2.974139-2.096604,5.905136-5.662903,7.648291-1.875047.917278-3.612957,1.239864-5.306127,1.242148-2.195716.002961-4.026634-.451944-5.584277-1.639662-1.419643-1.141925-2.199541-2.833239-2.201393-4.206167-.000555-.411394.135034-1.555417.363754-1.829988.502489-.641163,2.330132-2.016558,4.341631-3.437374-.000062-.045979.045794-.137193-.000185-.137131-1.831166-.638823-2.7016-1.87264-2.885944-2.787141-.000309-.22909.182123-.73269.227111-.869882.685909-.41232,2.331803-1.376075,3.017526-1.925526.045111-.04604.044926-.183172-.046288-.229028-2.379938-.820387-4.258872-2.785289-4.263869-6.491064-.002591-1.921453.818289-3.935573,2.60076-5.310503,1.2345-.962797,4.023302-2.018842,5.807624-2.021248,1.693232.043696,2.837562.407971,4.16519.909535ZM316.85425,166.194078c-.002097-1.555232-.827111-2.606-2.291932-3.153357-1.327627-.501563-3.615611-.727568-5.674195-.724792-.686464.000926-1.235549.184777-1.601462.414362-1.782779,1.146244-2.512935,2.245089-2.511269,3.480078.001543,1.143837.460274,2.149927,1.468153,3.018143,1.328429,1.096068,2.930134,1.46013,4.760435,1.457662,4.163149-.005615,5.853233-2.295573,5.850271-4.492096ZM305.712177,148.45741c.003826,2.836604,1.334847,5.854932,4.49129,5.850675.640484-.000864,1.555667-.277168,2.058281-.826373.730711-.68745,1.232151-2.106633,1.229806-3.844975-.003703-2.745452-1.105448-5.626151-4.445808-5.621646-2.012605.002714-3.337209,1.742846-3.333568,4.442319Z"/>
      <path class="st0" d="M335.005867,156.790597c.045667.366161-.181444,1.236043-.273157,1.418471-1.918429,2.245093-5.25644,3.393435-7.315831,3.396212-2.424806.00327-4.255289-.726705-5.676108-2.142892-1.878065-1.918924-2.705487-4.75482-2.709066-7.408717-.005491-4.071593,1.775128-6.819048,4.106746-8.332254,1.416805-.962639,3.474587-1.560324,5.030625-1.562422,4.483391-.006047,6.135888,3.926597,6.50575,6.625575.045358.13707.274756.365448.732315.502366.000308.228687-.272844,1.052652-.40979,1.189968-1.966754.506006-8.142821.880155-12.077501,1.022996-.183111.000247-.22872.274572-.228411.503662.047892,1.418038.737009,3.384545,1.928368,4.526778,1.327931,1.32516,2.838792,1.917628,4.943356,1.91479,1.830301-.002468,3.522669-.599257,5.213243-1.928488.046041.045917.183358.182864.22946.273954ZM322.687738,149.258112c.000123.091555.13837.320056.275501.319871,1.555294.043882,6.862901-.100811,7.731422-.28469.137008-.09174.228781-.229399.273707-.412167-.27741-2.333284-1.790863-4.847609-4.260842-4.844278-2.196523.002962-3.748977,2.064048-4.019789,5.221265Z"/>
    </g>
  </g>
</svg>