<?xml version="1.0" encoding="utf-8"?>
<!-- Generator: Adobe Illustrator 20.0.0, SVG Export Plug-In . SVG Version: 6.00 Build 0)  -->
<svg version="1.1" id="Layer_2" xmlns="http://www.w3.org/2000/svg" xmlns:xlink="http://www.w3.org/1999/xlink" x="0px" y="0px"
	 viewBox="0 0 311 250" style="enable-background:new 0 0 311 250;" xml:space="preserve">
<style type="text/css">
	.st0{fill:#FFFFFF;}
</style>
<path class="st0" d="M51.1,89.9c-16.2-11.2-35.8-28.3-35.3-48c0.5-19.7,15.2-24.5,17.7-25.2C36,16,96.9,16,96.9,16
	c67.9,0,159.1,0.1,166.4,0s16.5-0.1,23.4,6s11.5,16.8,7.4,29.8s-12.4,23.1-30.8,35.9s-80.9,56.8-86.2,60s-14.4,8.4-21.2,8.4
	s-14.2-3.5-21.2-8.1S51.1,89.9,51.1,89.9z"/>
<path class="st0" d="M15.6,86.9c0,0,3.7,5.1,11.1,10.5s85.8,59.9,95.6,66.8s23.1,12.1,32,12.1s21.5-3.2,32.2-10.6s88.6-62,94.8-66
	S295,87.9,295.5,87c0,10.5-0.1,119.4,0,122.1s-0.1,13.8-7.9,20s-10.8,7-27.8,6.9s-211,0-218-0.1s-12.2-0.9-18.6-7
	s-7.9-13.1-7.8-21.2S15.6,86.9,15.6,86.9z"/>
</svg>
