<?xml version="1.0" encoding="utf-8"?>
<!-- Generator: Adobe Illustrator 20.0.0, SVG Export Plug-In . SVG Version: 6.00 Build 0)  -->
<svg version="1.1" id="ART" xmlns="http://www.w3.org/2000/svg" xmlns:xlink="http://www.w3.org/1999/xlink" x="0px" y="0px"
	 viewBox="0 0 417.3 349.3" style="enable-background:new 0 0 417.3 349.3;" xml:space="preserve">
<style type="text/css">
	.st0{fill:#FFFFFF;}
</style>
<path class="st0" d="M137.6,147.7c-9.4-0.7-18.1,0-23.6,0.9l-0.9,1.9c5.3-1.1,14.3-1.9,24.1-1.1c9.4,0.7,17,2.7,23.5,4.4v-1.9
	C154.3,150.3,146.6,148.4,137.6,147.7"/>
<path class="st0" d="M160.7,171c-27.2,0.8-47.9,8.3-57,12.2l0.2-2c9.6-4,30.1-11.2,56.7-11.9V171z"/>
<path class="st0" d="M305.7,159.3c-6-0.4-12.5-0.1-19.2,0.6c-9.2-3.7-21.9-6.8-33.6-8c-0.3,0-0.2,0.6-0.2,1c0,0.5-0.2,0.7,0.3,0.8
	c10,1.1,21,3.6,29.5,6.7c-9.8,1.3-20,3.3-29.5,5.2l0,1.8c17.5-3.5,37.3-7.6,53.3-6.3L305.7,159.3z"/>
<path class="st0" d="M253,134.2c7.5,0.4,15.3,1.3,21.9,2.8c11.1,2.6,19.4,5.5,24.7,8.6c-7.8-15.8-20.1-31.2-46.6-47.6
	c-0.3-0.2,0.1,8.2,0.1,16.9C253,124.3,252.6,134.2,253,134.2z"/>
<path class="st0" d="M160.7,134.1c-15.4,1.1-34.8,4.9-45,11.1c6.1-12.3,22-32.1,44.5-43.9l-0.1,4.1l0.6,1.3l0.1,24.6L160.7,134.1z"
	/>
<polygon class="st0" points="207.4,19.3 209.2,19.3 209.2,15.2 207.4,15.2 "/>
<polygon class="st0" points="205.3,21.1 207.1,21.1 207.1,19.8 205.3,19.8 "/>
<polygon class="st0" points="209.2,13.4 207.4,13.4 207.4,14.8 209.2,14.8 "/>
<path class="st0" d="M201.2,25.9l19.4,0c0.4-0.1,0.6-0.9,0.7-1.4l-20.3-0.1C201.1,24.9,201.2,25.5,201.2,25.9z"/>
<polygon class="st0" points="207.4,21.1 209.2,21.1 209.2,19.8 207.4,19.8 "/>
<polygon class="st0" points="207.1,13.4 205.3,13.4 205.3,14.7 207.1,14.8 "/>
<polygon class="st0" points="205.3,19.3 207.1,19.3 207.1,15.2 205.3,15.2 "/>
<polygon class="st0" points="212,19.3 213.6,19.3 213.6,15.3 212,15.2 "/>
<polygon class="st0" points="212,21.1 213.6,21.1 213.6,19.8 212,19.8 "/>
<polygon class="st0" points="214,19.3 215.8,19.3 215.8,15.3 214,15.3 "/>
<polygon class="st0" points="209.6,19.3 211.4,19.3 211.4,15.2 209.6,15.2 "/>
<polygon class="st0" points="215.8,13.4 214,13.4 214,14.8 215.8,14.8 "/>
<path class="st0" d="M213.6,13.4l-0.9,0c-0.1,0.2-0.2,0.4-0.4,0.6c-0.1,0.2-0.2,0.3-0.3,0.5v0.2l1.6,0V13.4z"/>
<path class="st0" d="M211.4,14.5c-0.1-0.1-0.2-0.2-0.2-0.4c-0.2-0.3-0.4-0.6-0.4-0.7l-1.1,0v1.4l1.8,0V14.5z"/>
<polygon class="st0" points="203.1,21.1 204.9,21.1 204.9,19.7 203.1,19.7 "/>
<polygon class="st0" points="214,21.1 215.8,21.1 215.8,19.8 214,19.8 "/>
<polygon class="st0" points="209.6,21.1 211.4,21.1 211.4,19.8 209.6,19.8 "/>
<path class="st0" d="M181.2,79.3l21.3-48.6c0-0.1,0.2-0.2,0.3-0.2l14.4,0c0.1,0,0.2,0.1,0.3,0.1l31.2,48.6l1.5,0l-32-49.9l-16.5,0
	l-22.1,50L181.2,79.3z"/>
<polygon class="st0" points="197.1,20.8 198,20.4 198,16.3 197.1,16.7 "/>
<polygon class="st0" points="195.8,22.8 196.7,22.4 196.7,21.4 195.8,21.8 "/>
<polygon class="st0" points="204.9,13.4 203.1,13.4 203.1,14.7 204.9,14.7 "/>
<polygon class="st0" points="197.1,22.3 198,22 198,20.9 197.1,21.3 "/>
<path class="st0" d="M157.1,100.3c0.7,0.7,1.4,1.2,2.3,1.5v2.7c0,0.9,0.3,1.8,0.9,2.5v80.1c0.3,0,0.7,0,1,0v-80.5
	c-0.6-0.5-0.9-1.3-0.9-2.1V101c-1.3-0.3-2.2-1.1-2.8-1.7c-1.5-0.4-2.8-1.7-3.3-3.4c-0.3-1.2,0.1-2.4,1-3.1l4.2-3.2l8.8-16V55.4
	c0-2.3,1.4-4.8,3.3-6c1.1-0.7,2.4-0.9,3.5-0.6l6.9,0l9.6-17.6c0,0-0.1,0-0.1-0.1c-1.5-0.9-2-2.5-2.1-3.2c-0.3-1.4,0.5-2.7,1.8-3.3
	l4-1.6v-7.9v-0.5c-0.1-0.1-0.2-0.3-0.3-0.4c-0.3-0.4-0.4-0.6-0.4-0.8c0-0.1,0.1-0.6,0.3-1.6c0.2-0.9,0.5-1.9,0.5-2.4
	c0-0.1,0.1-0.1,0.1-0.1c0,0,0,0,0,0c0.1,0,0.1,0.1,0.1,0.1c0.1,0.5,0.3,1.3,0.5,2.1c0.3,1.1,0.4,1.6,0.4,1.7c0,0.2-0.2,0.4-0.4,0.8
	c-0.1,0.1-0.2,0.3-0.3,0.5v0.1l4.6-1.8v-0.2c-0.1-0.2-0.2-0.3-0.3-0.4c-0.3-0.4-0.4-0.6-0.5-0.8c0-0.2,0.1-0.6,0.4-1.7
	c0.2-0.9,0.5-2,0.6-2.5c0-0.1,0.1-0.1,0.2-0.1c0,0,0,0,0,0c0.1,0,0.1,0.1,0.2,0.1c0.1,0.5,0.3,1.4,0.5,2.2c0.3,1.1,0.4,1.6,0.4,1.8
	c0,0.2-0.2,0.4-0.5,0.9c-0.1,0.2-0.2,0.4-0.3,0.5v0.1l9.8,0c0.1-0.2,0.1-0.6,0.2-1c0.2-0.9,0.5-1.9,0.5-2.4c0-0.1,0.1-0.1,0.1-0.1
	c0.1,0,0.1,0.1,0.1,0.1c0.1,0.5,0.3,1.3,0.5,2.1c0.2,0.6,0.3,1,0.3,1.3l5,0v-0.1c-0.1-0.2-0.2-0.3-0.3-0.5c-0.3-0.4-0.4-0.6-0.5-0.8
	c0-0.2,0.1-0.6,0.4-1.7c0.2-0.9,0.5-2,0.6-2.5c0-0.1,0.1-0.1,0.2-0.1c0,0,0,0,0,0c0.1,0,0.1,0.1,0.2,0.1c0.1,0.5,0.3,1.4,0.5,2.2
	c0.3,1.1,0.4,1.6,0.4,1.8c0,0.2-0.2,0.4-0.5,0.9c-0.1,0.2-0.2,0.3-0.3,0.5v0.4v8l3.4,0c0.8,0,1.6,0.4,2.1,1c0.5,0.6,0.8,1.4,0.8,2.2
	c-0.1,1.6-0.7,3-1.6,3.8c-0.2,0.5-0.5,0.9-0.9,1.3l12.7,19.9l0.5,0c1.9,0,4,0,5.2,0c3.5,0,6,2.6,6,6.2v12.1l5.8,9l6,0
	c0.8,0,1.6,0.4,2.2,1c0.6,0.6,0.8,1.5,0.7,2.3c-0.2,1.8-1,3.3-2.1,4.2c-0.6,1.8-1.7,3-3.2,3.4l-2.6,1.5v4.9c0,0.6-0.2,1.1-0.5,1.6
	l-0.4,0.6v98.9c0.3,0,0.7,0.1,1,0.1V96.5l0.3-0.4c0.4-0.6,0.7-1.4,0.7-2.2v-4.3l2-1.2c1.7-0.5,3-1.8,3.7-3.8c1.2-1.1,2-2.8,2.2-4.7
	c0.1-1.1-0.2-2.2-1-3.1c-0.7-0.8-1.8-1.3-2.9-1.3l-5.5,0l-5.3-8.3V55.5c0-4.2-2.9-7.2-7-7.2c-1.2,0-3.3,0-5.2,0l-12-18.8
	c0.2-0.2,0.3-0.5,0.5-0.7c1-1,1.6-2.5,1.8-4.3c0.1-1.1-0.3-2.2-1-3c-0.7-0.8-1.8-1.3-2.9-1.3l-2.4,0V13c0.1-0.1,0.1-0.2,0.2-0.3
	c0.3-0.5,0.5-0.9,0.6-1.3c0.1-0.4,0-0.7-0.4-2.2c-0.2-0.7-0.4-1.7-0.5-2.1c-0.1-0.6-0.6-1-1.2-1c-0.6,0-1.1,0.5-1.1,1
	c0,0.5-0.3,1.6-0.5,2.4c-0.3,1.3-0.4,1.7-0.4,2.1c0,0.1,0,0.1,0,0.2l-2.5,0c0-0.2-0.1-0.4-0.1-0.6c-0.2-0.7-0.4-1.6-0.5-2
	c-0.1-0.6-0.6-1-1.2-1c-0.6,0-1.1,0.5-1.1,1c0,0.4-0.3,1.4-0.5,2.2c0,0.1,0,0.2-0.1,0.2l-7.3,0c0.1-0.1,0.1-0.2,0.1-0.4
	c0.1-0.4,0-0.7-0.4-2.2c-0.2-0.7-0.4-1.7-0.5-2.1c-0.1-0.6-0.6-1-1.2-1c-0.6,0-1.1,0.5-1.1,1c0,0.5-0.3,1.5-0.5,2.4
	c-0.3,1.3-0.4,1.7-0.4,2.1c0,0.3,0.2,0.5,0.3,0.8l-1.5,0.6c-0.1-0.3-0.2-0.8-0.4-1.6c-0.2-0.7-0.4-1.6-0.5-2c-0.1-0.6-0.6-1-1.2-1
	c-0.6,0-1.1,0.5-1.1,1c0,0.4-0.3,1.4-0.5,2.2c-0.3,1.3-0.4,1.6-0.4,2c0.1,0.4,0.3,0.7,0.6,1.2c0,0,0.1,0.1,0.1,0.1v7.4l-3.4,1.3
	c-1.7,0.7-2.8,2.5-2.4,4.4c0.1,0.7,0.6,2.3,1.9,3.4l-8.9,16.3l-6.1,0c-1.4-0.3-2.9,0-4.2,0.8c-2.2,1.4-3.7,4.2-3.7,6.9v18.1
	l-8.5,15.6l-4,3.1c-1.3,1-1.8,2.6-1.4,4.2C153.9,98.2,155.4,99.7,157.1,100.3z"/>
<polygon class="st0" points="196.7,15 195.8,15.4 195.8,16.7 196.7,16.3 "/>
<polygon class="st0" points="195.8,21.3 196.7,20.9 196.7,16.8 195.8,17.2 "/>
<polygon class="st0" points="198,14.5 197.1,14.9 197.1,16.2 198,15.8 "/>
<path class="st0" d="M199.6,21.3l0.2-0.1c0.2-0.1,0.4-0.1,0.7-0.2v-1.2l-0.8,0.3V21.3z"/>
<polygon class="st0" points="203.1,19.3 204.9,19.3 204.9,15.2 203.1,15.2 "/>
<polygon class="st0" points="200.4,13.5 199.6,13.9 199.6,15.2 200.4,14.8 "/>
<polygon class="st0" points="198.3,20.2 199.2,19.9 199.2,15.8 198.3,16.2 "/>
<polygon class="st0" points="199.6,19.7 200.4,19.4 200.4,15.3 199.6,15.7 "/>
<polygon class="st0" points="199.2,14 198.3,14.4 198.3,15.7 199.2,15.3 "/>
<polygon class="st0" points="198.3,21.8 199.2,21.5 199.2,20.4 198.3,20.7 "/>
<path class="st0" d="M183.6,87l1.7,0.1c0.2-0.2,0.3-0.5,0.3-0.7c0-0.5,0-0.8-0.1-1h-1.7c0.1,0.3,0.1,0.6,0,1
	C183.8,86.7,183.7,86.8,183.6,87z"/>
<path class="st0" d="M208.4,94.4c0,0.2,0,1.1-0.3,1.7h1.4c0.2-0.2,0.4-0.8,0.4-1.7v-2.9l-1.5,0.1V94.4z"/>
<path class="st0" d="M221.6,87l1.7,0.1c0.2-0.2,0.3-0.5,0.3-0.7c0-0.5,0-0.8-0.1-1h-1.7c0.1,0.3,0.1,0.6,0,1
	C221.8,86.7,221.7,86.8,221.6,87z"/>
<path class="st0" d="M221.1,94.4c0,0.2,0,1.1-0.3,1.7h1.4c0.2-0.2,0.4-0.8,0.4-1.7v-2.9l-1.5,0.1V94.4z"/>
<path class="st0" d="M196.4,87l1.7,0.1c0.2-0.2,0.3-0.5,0.3-0.7c0-0.5,0-0.8-0.1-1h-1.7c0.1,0.3,0.1,0.6,0,1
	C196.6,86.7,196.5,86.8,196.4,87z"/>
<path class="st0" d="M210.4,93.9l8.9-0.1c0-1.5-0.5-3-1.1-4.1l-7.9,0V93.9z"/>
<path class="st0" d="M197.8,93.9l8.8-0.1c0.1-1.5-0.5-3-1.1-4.1l-7.7,0V93.9z"/>
<path class="st0" d="M209,87l1.7,0.1c0.2-0.2,0.3-0.5,0.3-0.7c0-0.5,0-0.8-0.1-1h-1.7c0.1,0.3,0.1,0.6,0,1
	C209.2,86.7,209.1,86.8,209,87z"/>
<path class="st0" d="M195.8,94.4c0,0.2,0,1.1-0.3,1.7h1.4c0.2-0.2,0.4-0.8,0.4-1.7v-2.9l-1.5,0.1V94.4z"/>
<polygon class="st0" points="216.1,19.3 217.7,19.3 217.7,15.3 216.1,15.3 "/>
<path class="st0" d="M246.3,94.4c0,0.2,0,1.1-0.3,1.7h1.4c0.2-0.2,0.4-0.8,0.4-1.7v-2.9l-1.5,0.1V94.4z"/>
<polygon class="st0" points="250.2,89.7 248.3,89.7 248.3,93.6 250.2,93.6 "/>
<path class="st0" d="M256.3,82.4l-78,0.1c0,0.5,0.1,0.9,0.2,1.3c0,0.3,0.1,0.5,0.1,0.7l76.5-0.1C255.9,84.4,256.2,83,256.3,82.4z"/>
<path class="st0" d="M234.3,87l1.7,0.1c0.2-0.2,0.3-0.5,0.3-0.7c0-0.5,0-0.8-0.1-1h-1.7c0.1,0.3,0.1,0.6,0,1
	C234.5,86.7,234.4,86.8,234.3,87z"/>
<path class="st0" d="M235.7,93.7l8.9-0.1c0-1.4-0.6-2.9-1.1-4l-7.8,0V93.7z"/>
<path class="st0" d="M246.9,87l1.7,0.1c0.2-0.2,0.3-0.5,0.3-0.7c0-0.5,0-0.8-0.1-1h-1.7c0.1,0.3,0.1,0.6,0,1
	C247.1,86.7,247,86.8,246.9,87z"/>
<path class="st0" d="M233.7,94.4c0,0.2,0,1.1-0.3,1.7h1.4c0.2-0.2,0.4-0.8,0.4-1.7v-2.9l-1.5,0.1V94.4z"/>
<path class="st0" d="M223.1,93.8l8.9-0.1c0-1.4-0.6-2.9-1.1-4l-7.8,0V93.8z"/>
<polygon class="st0" points="201,14.7 202.7,14.7 202.7,13.4 201,13.4 "/>
<path class="st0" d="M183.1,94.4c0,0.2,0,1.1-0.3,1.7h1.4c0.2-0.2,0.4-0.8,0.4-1.7v-2.9l-1.5,0.1V94.4z"/>
<polygon class="st0" points="201,21.1 202.7,21.1 202.7,19.7 201,19.7 "/>
<polygon class="st0" points="201,19.3 202.7,19.3 202.7,15.2 201,15.2 "/>
<polygon class="st0" points="217.7,13.5 216.1,13.4 216.1,14.8 217.7,14.8 "/>
<polygon class="st0" points="216.1,21.1 217.7,21.2 217.7,19.8 216.1,19.8 "/>
<path class="st0" d="M201.4,27.5l17.9-0.1c0.5-0.3,0.8-0.7,0.9-1l-18.9,0c0,0.3,0.1,0.5,0.1,0.7C201.4,27.3,201.4,27.4,201.4,27.5z"
	/>
<path class="st0" d="M180.3,89.8l-1.4,0l-0.1,4.3l2.5,0C181.4,92.5,180.9,90.9,180.3,89.8z"/>
<path class="st0" d="M178.2,81.9l78.5-0.1c0.8,0,1.2-1.3,1.4-1.9l-80,0.1C177.9,80.8,178.1,81.5,178.2,81.9z"/>
<path class="st0" d="M185.1,94l9-0.1c0.1-1.5-0.5-3-1.1-4.2l-7.9,0V94z"/>
<polygon class="st0" points="202.8,31.6 202.2,33 217.7,33 216.8,31.6 "/>
<polyline points="220.4,23.6 220.4,23.6 220.4,23.6 "/>
<path class="st0" d="M228.9,54.5v0.6h2.9l-0.9-1.3h-2.1C228.9,54,228.9,54.2,228.9,54.5z"/>
<polygon class="st0" points="228.9,57.3 233.3,57.3 232.4,55.9 228.9,55.9 "/>
<polygon class="st0" points="228.9,61.7 236.1,61.7 235.2,60.4 228.9,60.4 "/>
<polygon class="st0" points="228.9,59.5 234.7,59.5 233.8,58.2 228.9,58.2 "/>
<polygon class="st0" points="219.3,44 224.8,44 223.9,42.7 219.3,42.7 "/>
<path class="st0" d="M219.3,50.7h1.1c0.9-0.8,2.1-1.3,3.3-1.3c0,0,0,0,0,0c1.2,0,2.4,0.5,3.4,1.3h1.8l-0.9-1.3h-8.8V50.7z"/>
<polygon class="st0" points="228.9,63.9 237.5,63.9 236.7,62.6 228.9,62.6 "/>
<polygon class="st0" points="219.3,41.8 223.3,41.8 222.5,40.5 219.3,40.5 "/>
<polygon class="st0" points="219.3,46.2 226.2,46.2 225.3,44.9 219.3,44.9 "/>
<polygon class="st0" points="219.3,48.4 227.6,48.4 226.7,47.1 219.3,47.1 "/>
<path class="st0" d="M228.6,52.9h1.8l-0.9-1.3H228C228.3,51.9,228.5,52.4,228.6,52.9z"/>
<polygon class="st0" points="228.9,79.2 247.3,79.2 246.6,78 228.9,78 "/>
<polygon class="st0" points="228.9,66.1 238.9,66.1 238.1,64.8 228.9,64.8 "/>
<path class="st0" d="M219.3,51.5V52c0.1-0.2,0.2-0.3,0.3-0.5H219.3z"/>
<polygon class="st0" points="228.9,77.2 246,77.2 245.2,75.8 228.9,75.8 "/>
<polygon class="st0" points="228.9,68.3 240.3,68.3 239.5,67 228.9,67 "/>
<polygon class="st0" points="228.9,70.5 241.8,70.5 240.9,69.2 228.9,69.2 "/>
<polygon class="st0" points="228.9,72.7 243.2,72.7 242.3,71.4 228.9,71.4 "/>
<polygon class="st0" points="228.9,74.9 244.6,74.9 243.7,73.6 228.9,73.6 "/>
<path class="st0" d="M219.3,39.6h2.6l-0.9-1.3h-2C219.2,38.7,219.3,39.1,219.3,39.6z"/>
<path class="st0" d="M198,55.9h-5.8l-0.6,1.3h5.5C197.4,56.8,197.7,56.4,198,55.9z"/>
<path class="st0" d="M193.4,64.8h-5.1l-0.6,1.3h5.8C193.4,65.7,193.4,65.2,193.4,64.8z"/>
<path class="st0" d="M194.4,61.3c0.2-0.2,0.4-0.6,0.6-0.9h-4.8l-0.6,1.3h4.5C194.2,61.6,194.3,61.4,194.4,61.3z"/>
<path class="st0" d="M196.5,58.2h-5.3l-0.6,1.3h5C195.9,59.1,196.2,58.6,196.5,58.2z"/>
<path class="st0" d="M194,68.1c-0.1-0.3-0.3-0.7-0.4-1.1h-6.4l-0.6,1.3h7.4C194.1,68.2,194.1,68.1,194,68.1z"/>
<path class="st0" d="M193.8,62.6h-4.5l-0.6,1.3h4.8C193.5,63.4,193.6,63,193.8,62.6z"/>
<path class="st0" d="M194.5,69.2h-8.2l-0.6,1.3h9.3C194.8,70,194.7,69.6,194.5,69.2z"/>
<path class="st0" d="M197.9,78h-15.5l-0.5,1.2l16.5,0C198.3,78.9,198.1,78.5,197.9,78z"/>
<path class="st0" d="M197.1,75.8h-13.6l-0.6,1.3h14.7C197.4,76.7,197.2,76.3,197.1,75.8z"/>
<path class="st0" d="M196.2,73.6h-11.8l-0.6,1.3h12.9C196.6,74.5,196.4,74.1,196.2,73.6z"/>
<path class="st0" d="M195.4,71.4h-10l-0.6,1.3h11.1C195.7,72.3,195.5,71.8,195.4,71.4z"/>
<path class="st0" d="M217.8,36.1c0.4,0.4,0.7,0.8,0.9,1.3h1.7l-0.9-1.3L217.8,36.1C217.8,36.1,217.8,36.1,217.8,36.1z"/>
<path class="st0" d="M209.2,39c0-0.2,0.1-0.5,0.2-0.7h-9.5l-0.6,1.3h9.4C208.9,39.4,209,39.2,209.2,39z"/>
<path class="st0" d="M208.2,40.5h-9.2l-0.6,1.3h8.9C207.6,41.4,207.9,40.9,208.2,40.5z"/>
<path class="st0" d="M199.4,53.7h-6.3l-0.6,1.3h6C198.9,54.6,199.2,54.1,199.4,53.7z"/>
<path class="st0" d="M206.7,42.7H198l-0.6,1.3h8.4C206.1,43.6,206.4,43.2,206.7,42.7z"/>
<path class="st0" d="M214.2,34.6C214.2,34.6,214.2,34.6,214.2,34.6c0.8,0,1.6,0.2,2.3,0.6h2.5l-0.9-1.3h-16.4l-0.6,1.3h10.6
	C212.6,34.8,213.4,34.6,214.2,34.6z"/>
<path class="st0" d="M210.7,36.1h-9.8l-0.6,1.3h9.4C210,36.9,210.3,36.5,210.7,36.1z"/>
<path class="st0" d="M203.8,47.1H196l-0.6,1.3h7.9C203.4,48,203.6,47.5,203.8,47.1z"/>
<path class="st0" d="M200.5,51.5h-6.4l-0.6,1.3h6.3C200,52.4,200.2,51.9,200.5,51.5z"/>
<path class="st0" d="M203.1,49.7c0-0.1,0-0.2,0-0.4h-8.1l-0.6,1.3h6.9C201.9,50.2,202.5,49.9,203.1,49.7z"/>
<path class="st0" d="M205.2,44.9H197l-0.6,1.3h7.9C204.6,45.9,204.9,45.4,205.2,44.9z"/>
<path class="st0" d="M209.4,79.2l-0.3,0V54.5c0-1.2-0.5-2.3-1.3-3.1c-0.8-0.8-2-1.3-3.1-1.3c0,0,0,0,0,0c-2.5,0-4.5,2-4.5,4.5v24.7
	l-0.4,0l8.2,0l-0.4,0V65.7l-0.9,0v12.7l-4.7,0V65.7l-0.4,0l0-0.7l6,0V54.8c0-0.9-0.3-1.7-1-2.3c-0.6-0.6-1.5-1-2.3-1c0,0,0,0,0,0
	c-0.6,0-1.2,0.2-1.7,0.5c-0.1,0-0.2,0-0.2,0c0-0.1,0-0.2,0-0.2c0.6-0.5,1.4-0.8,2.2-0.8c0,0,0,0,0,0c1,0,1.9,0.4,2.6,1.1
	c0.7,0.7,1.1,1.6,1.1,2.6v24.7L209.4,79.2z M204.4,52.6c1.3,0,2.3,1,2.3,2.3v9.4l-4.7,0v-9.4C202,53.6,203.1,52.6,204.4,52.6z"/>
<path class="st0" d="M217.4,36.6c-0.8-0.8-2-1.3-3.1-1.3c0,0,0,0,0,0c-2.5,0-4.5,2-4.5,4.5v39.5l8.9,0V39.7
	C218.7,38.5,218.2,37.4,217.4,36.6z M211.6,40c0-1.3,1-2.3,2.3-2.3c1.3,0,2.3,1,2.3,2.3v16.9l-4.7,0V40z M217.8,79.2l-0.7,0v-21
	l-0.9,0v20.3l-4.7,0V58.3l-0.4,0l0-0.7l6,0V40c0-0.9-0.3-1.7-1-2.3c-0.6-0.6-1.5-1-2.3-1c0,0,0,0,0,0c-0.6,0-1.2,0.2-1.7,0.5
	c-0.1,0-0.2,0-0.2,0c0-0.1,0-0.2,0-0.2c0.6-0.5,1.4-0.8,2.2-0.8c0,0,0,0,0,0c1,0,1.9,0.4,2.6,1.1c0.7,0.7,1.1,1.6,1.1,2.6V79.2z"/>
<path class="st0" d="M227,51.3c-0.8-0.8-2-1.3-3.1-1.3c0,0,0,0,0,0c-2.5,0-4.5,2-4.5,4.5v24.7l-0.6,0l8,0V65.7l-0.9,0v12.7l-4.7,0
	V65.7l-0.4,0l0-0.7l6,0V54.7c0-0.9-0.3-1.7-1-2.3c-0.6-0.6-1.5-1-2.3-1c0,0,0,0,0,0c-0.6,0-1.2,0.2-1.7,0.5c-0.1,0-0.2,0-0.2,0
	c0-0.1,0-0.2,0-0.2c0.6-0.5,1.4-0.8,2.2-0.8c0,0,0,0,0,0c1,0,1.9,0.4,2.6,1.1c0.7,0.7,1.1,1.6,1.1,2.6v24.8l0.8,0V54.5
	C228.3,53.3,227.8,52.2,227,51.3z M223.5,52.5c1.3,0,2.3,1,2.3,2.3v9.4l-4.7,0v-9.4C221.2,53.6,222.2,52.5,223.5,52.5z"/>
<path class="st0" d="M167.6,132.8l-0.4,0.2v-21.1c0-2.4,0.7-3.5,1.6-3.3c0.4,0.1,0.8,0.4,1,1c0,0-0.4-0.3-0.7-0.4
	c-0.8-0.4-1.5,0.9-1.5,3.1V132.8z M171.7,111.2c0-2.2,0.7-3.5,1.5-3.1c0.3,0.1,0.7,0.4,0.7,0.4c-0.3-0.6-0.6-1-1-1
	c-0.9-0.2-1.6,0.9-1.6,3.3v20.5l0.4-0.2V111.2z M174.6,132.3l-8.2,2.4v1.2l8.2-2.4V132.3z M175.2,183.8l-9.4,1.3v1.4l9.4-1.3V183.8z
	 M167.2,156.9c0.4-0.8,0.9-1.3,1.9-1.2c0.4,0,0.8,0.2,1.2,0.4c-0.4-0.3-0.8-0.6-1.2-0.8c-1.3-0.6-2.2,0-2.6,0.9v27.1l0.7,0V156.9z
	 M171.7,156c0.4-0.8,0.9-1.3,1.9-1.2c0.4,0,0.8,0.2,1.2,0.4c-0.4-0.3-0.8-0.6-1.2-0.8c-1.3-0.6-2.2,0-2.6,0.9v27.5l0.7,0V156z"/>
<path class="st0" d="M172.1,79.3V55.4c0-0.7,0.5-1.6,1-2l0,0c0.6-0.4,1-0.1,1,0.6v23.8l0.9-0.7V52.9c0-1.3-0.9-1.8-1.9-1.1
	c-1.1,0.7-1.9,2.3-1.9,3.6V80L172.1,79.3z"/>
<path class="st0" d="M186.7,188.9c7.9,0.7,16.1,1.5,24,2.3l0.3,0l4.2,0.4c6.5,0.7,13.3,1.4,19.8,2l3,0.3c3.8,0.3,7.4,0.7,11,0.9
	V95.2l-0.7,0c-0.1,0.5-0.2,1-0.5,1.3c-0.1,0.1-0.3,0.5-0.7,0.7c0,0-0.1,0-0.1,0h-2c-0.1,0-0.1,0-0.2-0.1c0,0-0.1-0.1-0.1-0.2l0-1.7
	l-9.1,0c-0.1,0.5-0.2,1-0.5,1.2c-0.1,0.1-0.3,0.5-0.7,0.7c0,0-0.1,0-0.1,0h-2c-0.1,0-0.1,0-0.2-0.1c0,0-0.1-0.1-0.1-0.2l0-1.7
	l-9.1,0c-0.1,0.5-0.2,1-0.5,1.2c-0.1,0.1-0.3,0.5-0.7,0.7c0,0-0.1,0-0.1,0h-2c-0.1,0-0.1,0-0.2-0.1c0,0-0.1-0.1-0.1-0.2l0-1.6
	l-9.1,0c-0.1,0.5-0.2,1-0.5,1.2c-0.1,0.1-0.3,0.5-0.7,0.7c0,0-0.1,0-0.1,0h-2c-0.1,0-0.1,0-0.2-0.1c0,0-0.1-0.1-0.1-0.2l0-1.6l-9,0
	c-0.1,0.5-0.2,1-0.5,1.2c-0.1,0.1-0.3,0.5-0.7,0.7c0,0-0.1,0-0.1,0h-2c-0.1,0-0.1,0-0.2-0.1c0,0-0.1-0.1-0.1-0.2l0-1.6l-9.2,0
	c-0.1,0.5-0.2,1-0.5,1.2c-0.1,0.1-0.3,0.5-0.7,0.7c0,0-0.1,0-0.1,0h-2c-0.1,0-0.1,0-0.2-0.1c0,0-0.1-0.1-0.1-0.2l0-1.6l-2.1,0v93
	C181.7,188.4,184.1,188.6,186.7,188.9z M232.1,181.6v3c0,0,0,0,0,0c0,0,0,0.1,0,0.1c0,0,0,0,0,0c0,0,0,0,0,0c0,0,0,0,0,0l-0.6,0.5
	c0,0-0.1,0-0.1,0h0l-0.3,0v0.7c0,0,0,0,0,0c0,0,0,0.1,0,0.1c0,0,0,0,0,0c0,0,0,0,0,0c0,0,0,0,0,0l-0.6,0.5c0,0-0.1,0-0.1,0
	c0,0,0,0,0,0l-31.2-0.1c-0.1,0-0.2-0.1-0.2-0.2v-1.2l-0.9,0c-0.1,0-0.2-0.1-0.2-0.2v-3c0-0.1,0-0.1,0.1-0.2l0.6-0.5
	c0,0,0.1-0.1,0.1,0l0,0h0h0h0h0l1.2,0v-27.8c0-0.1,0-0.2,0.1-0.2c0.2-0.2,0.4-0.3,0.6-0.5c0,0,0,0,0,0c1.9-1.6,4.4-2.5,6.9-2.5
	c0,0,0,0,0.1,0c2.5,0,5,0.9,6.9,2.6c0.1,0.1,0.1,0.1,0.1,0.2v28.2l1.4,0v-27.8c0-0.1,0-0.2,0.1-0.2c0.2-0.2,0.4-0.3,0.6-0.5l0,0
	c1.9-1.6,4.4-2.5,6.9-2.5c0,0,0,0,0.1,0c2.5,0,5,0.9,6.9,2.6c0.1,0.1,0.1,0.1,0.1,0.2v28.2l1.5,0C232,181.4,232.1,181.5,232.1,181.6
	z M216.2,181.3l11.3,0.1v-13.6l-1,0v5.5l-3.6,0v-5.5l-0.9,0v5.5l-3.9,0v-5.5l-0.4,0l0-0.4l9.8,0v-12.8c-1.5-1.1-3.4-1.7-5.3-1.7
	c0,0,0,0,0,0c-1.3,0-2.6,0.3-3.8,0.9c-0.1,0-0.2,0-0.2-0.1c0-0.1,0-0.2,0.1-0.2c1.3-0.7,2.8-1.1,4.4-1.1c0,0,0,0,0,0
	c2,0,3.9,0.7,5.5,1.9c0,0,0.1,0.1,0.1,0.1v27.1l0.9,0v-27.6c-1.8-1.5-4.1-2.3-6.4-2.4c0,0,0,0-0.1,0c-2.3,0-4.6,0.8-6.4,2.3V181.3z
	 M200.1,181.3l11.3,0.1v-13.6l-1,0v5.6l-3.6,0v-5.5l-0.9,0v5.5l-3.9,0v-5.5l-0.3,0l0-0.4l9.7,0v-12.8c-1.5-1.1-3.4-1.7-5.3-1.7
	c0,0,0,0,0,0c-1.3,0-2.6,0.3-3.8,0.9c-0.1,0-0.2,0-0.2-0.1c0-0.1,0-0.2,0.1-0.2c1.3-0.7,2.8-1.1,4.3-1.1c0,0,0,0,0,0
	c2,0,3.9,0.7,5.5,1.9c0,0,0.1,0.1,0.1,0.1v27.1l0.9,0v-27.6c-1.8-1.5-4.1-2.3-6.4-2.4c-2.3,0-4.6,0.8-6.4,2.3V181.3z M230.4,184.8
	l-30.8-0.1v1l30.8,0.1V184.8z M231.6,181.9l-33.1-0.1v2.5l33.1,0.1V181.9z M226.4,159.5l-3.6,0v-5.9c1.4,0.1,2.7,0.5,3.6,1.3V159.5z
	 M222.8,174.3l3.6,0v6.3l-3.6,0V174.3z M221.9,159.5l-3.9,0v-4.6c1.2-0.8,2.7-1.2,3.9-1.2V159.5z M221.9,166.4l-3.9,0v-5.9l3.9,0
	V166.4z M226.4,166.4l-3.6,0v-5.9l3.6,0V166.4z M218.1,174.3l3.9,0v6.3l-3.9,0V174.3z M202,174.2l3.9,0v6.3l-3.9,0V174.2z
	 M206.7,174.2l3.6,0v6.3l-3.6,0V174.2z M205.8,166.3l-3.9,0v-5.9l3.9,0V166.3z M210.3,159.4l-3.6,0v-5.9c1.4,0.1,2.7,0.5,3.6,1.3
	V159.4z M210.3,166.3l-3.6,0v-5.9l3.6,0V166.3z M205.8,159.4l-3.9,0v-4.6c1.2-0.8,2.7-1.2,3.9-1.2V159.4z M205.5,117.5l-4.3,0v-7.6
	c0-1.2,1-2.2,2.2-2.2c1.2,0,2.2,1,2.2,2.2V117.5z M216.2,117.5l-4.3,0v-7.6c0-1.2,1-2.2,2.2-2.2c1.2,0,2.2,1,2.2,2.2V117.5z
	 M226.9,117.5l-4.3,0v-7.6c0-1.2,1-2.2,2.2-2.2c1.2,0,2.2,1,2.2,2.2V117.5z M232.2,129.8v2.1c0,0,0,0,0,0c0,0,0,0.1,0,0.1l-0.3,0.5
	c-0.1,0.1-0.2,0.1-0.3,0.1h0l-34.6,0c-0.2,0-0.3-0.1-0.3-0.3v-2.1c0-0.1,0-0.1,0-0.2l0.3-0.5c0,0,0,0,0,0c0,0,0,0,0,0c0,0,0,0,0.1,0
	c0,0,0,0,0,0c0,0,0.1,0,0.1,0l0,0c0,0,0,0,0,0l1.3,0v-18.9c0-1.2,0.3-2.3,0.9-3.2c0.1-0.1,0.1-0.2,0.2-0.3c0,0,0,0,0,0
	c0,0,0,0,0.1-0.1c0.1-0.2,0.3-0.4,0.4-0.5c0.9-0.9,2.1-1.4,3.4-1.4c0,0,0,0,0,0c2.7,0,4.8,2.2,4.8,4.8v19.6l0.9,0v-18.9
	c0-1.2,0.3-2.3,0.9-3.2c0.1-0.1,0.1-0.2,0.2-0.3c0,0,0,0,0,0c0,0,0,0,0.1-0.1c0.1-0.2,0.3-0.4,0.4-0.5c0.9-0.9,2.1-1.4,3.4-1.4
	c0,0,0,0,0,0c2.7,0,4.8,2.2,4.8,4.8v19.6l0.9,0v-18.9c0-1.2,0.3-2.3,0.9-3.2c0.1-0.1,0.1-0.2,0.2-0.3c0,0,0,0,0,0c0,0,0,0,0.1-0.1
	c0.1-0.2,0.3-0.4,0.4-0.5c0.9-0.9,2.1-1.4,3.4-1.4c0,0,0,0,0,0c2.7,0,4.8,2.2,4.8,4.8v19.6l1.9,0C232,129.5,232.2,129.6,232.2,129.8
	z M220.9,129.5l7,0V119l-1,0v9.5l-4.3,0V119l-0.4,0v-0.6l5.7,0v-8.6c0-1.7-1.3-3.1-3-3.2c0,0,0.1,0,0.1,0c1.8,0,3.3,1.5,3.3,3.3
	v19.7l0.9,0v-19.7c0-2.3-1.9-4.2-4.2-4.2c0,0,0,0,0,0c-1.1,0-2.2,0.4-3,1.2c-0.8,0.8-1.2,1.9-1.2,3V129.5z M210.2,129.4l7,0V119
	l-1,0v9.5l-4.3,0V119l-0.4,0v-0.6l5.7,0v-8.6c0-1.7-1.3-3.1-3-3.2c0,0,0.1,0,0.1,0c1.8,0,3.3,1.5,3.3,3.3v19.6l0.9,0v-19.6
	c0-2.3-1.9-4.2-4.2-4.2c0,0,0,0,0,0c-1.1,0-2.2,0.4-3,1.2c-0.8,0.8-1.2,1.9-1.2,3V129.4z M199.4,129.4l7,0V119l-0.9,0v9.5l-4.3,0
	V119l-0.4,0v-0.6l5.7,0v-8.6c0-1.7-1.3-3.1-2.9-3.2c0,0,0.1,0,0.1,0c1.8,0,3.3,1.5,3.3,3.3v19.6l0.9,0v-19.6c0-2.3-1.9-4.2-4.2-4.2
	c0,0,0,0,0,0c-1.1,0-2.2,0.4-3,1.2c-0.8,0.8-1.2,1.9-1.2,3V129.4z M231.6,130.1l-34,0v1.4l34,0V130.1z M220.6,136.1v9.5
	c0,0,0,0.1,0,0.1c0,0,0,0.1,0,0.1l-0.3,0.4c-0.1,0.1-0.1,0.1-0.2,0.1l-11.5,0c-0.2,0-0.3-0.1-0.3-0.3v-9.5c0-0.1,0-0.1,0.1-0.2
	l0.3-0.4c0,0,0,0,0,0c0,0,0,0,0,0c0,0,0.1,0,0.1,0c0,0,0.1,0,0.1,0c0,0,0,0,0,0c0,0,0,0,0,0l11.5,0
	C220.4,135.8,220.6,136,220.6,136.1z M220,136.4l-10.9,0v8.9l10.9,0V136.4z M219,143.9h-0.6V138l-8,0l0-0.6l8.3,0
	c0.2,0,0.3,0.1,0.3,0.3V143.9z"/>
<g>
	<path class="st0" d="M20.2,215.8c2.2,0,5.2,0.2,11,0.2c4.4,0,7.2-0.2,9.4-0.2c0.3,0.2,0.3,2.1-0.1,2.4c-1.9,0.3-3.2,0.6-4.1,0.9
		c-1.2,0.4-1.5,1.3-1.7,3c-0.1,3.2-0.2,26.9-0.4,33.6c-0.2,5.8-0.8,10.1-2.9,14c-3.9,7.2-10,11.1-15,11.1c-2.7,0-5.1-1.1-5.9-2.6
		c0-0.2-0.2-1-0.2-1.1c0.2-1.3,1.1-4.2,1.6-5.2c2.4,1.7,6.3,3.3,8.5,3.3c1.8,0,3.2-0.5,4.5-1.9c2-2.4,2.5-5.4,2.6-12.1
		c0.1-9.6,0.1-34.1-0.2-37.8c-0.1-2-0.3-3.6-2.4-4.2c-1.3-0.4-2.6-0.5-4.9-0.9C19.8,217.8,19.9,216,20.2,215.8z"/>
	<path class="st0" d="M39.4,233.1c3,0,8.9-0.6,10.9-1.1c-0.3,2.1-0.5,6.6-0.5,14.9c0,4.3,0.1,6.5,0.4,7.8c0.6,2.4,2.4,4.3,6.2,4.3
		c2.1,0,4.3-0.8,6.2-2.4c0.5-0.4,0.8-0.9,0.8-1.7c0.2-1,0.2-5.8,0-16.4c0-0.9-0.3-1.9-1.4-2.2c-1.1-0.3-2.7-0.5-4.9-0.8
		c-0.2-0.5,0.1-2.1,0.4-2.4c4.1,0,10.6-0.5,12.3-1c-0.2,1.3-0.2,3.5-0.2,6.2l-0.1,17.7c0,1.7,0.4,2.4,1.4,2.5c1.1,0.2,2.3,0,3.4-0.1
		c0.1,0.5,0,2.1-0.4,2.5c-2.8,1.1-8.6,2.8-10,3c-0.2,0-0.4-0.4-0.5-0.7c-0.1-0.8-0.2-3-0.2-4.2c0-0.2-0.3-0.3-0.5-0.2
		c-4.3,3.6-7.7,4.8-10,4.8c-7.5,0-9.1-5.2-9.1-10.3c-0.1-3.7,0.2-11.7,0-14.9c-0.1-1.2-0.4-2.1-1.4-2.5c-0.6-0.2-2.1-0.5-3.4-0.7
		C38.8,234.9,39,233.4,39.4,233.1z"/>
	<path class="st0" d="M78.2,260.1c1.1-0.2,1.6-1.2,1.7-2.5c0.2-2.3,0.2-7.7,0.2-12.5c0-2.7-0.1-4.6-0.1-5.9c-0.2-1-1.4-1.9-4.1-3
		c-0.2-0.5,0.1-1.7,0.5-1.9c3-0.3,7.6-1.7,9.5-2.8c0.1,0.1,0.4,0.4,0.4,0.5c-0.1,0.8-0.2,3-0.2,4.3c0,0.2,0.3,0.2,0.4,0.2
		c3.7-3.1,7.5-4.9,10.3-4.9c3.3,0,5.7,1.5,7.5,4c1.4,2.3,2.1,5.3,2.1,9.1c0,4.3,0,11.1,0.1,13.7c0,0.5,0.3,1.1,0.7,1.3
		c1.4,0.7,2.4,0.8,4,1.1c0.2,0.4,0.2,2-0.3,2.4c-1.1,0-3.4-0.2-7.5-0.2c-3.4,0-5.7,0.2-7.5,0.2c-0.3-0.4-0.4-2.1,0-2.4
		c1.4-0.2,2.6-0.5,3-0.6c1.1-0.3,1.3-1.1,1.4-3.3c0-4.5,0.1-11.6-0.2-14.4c-0.2-1.3-0.7-3.2-2.1-4.4c-1.1-1-2.5-1.7-4.7-1.7
		c-2.2,0-4.6,0.9-6.3,2.4c-0.5,0.5-0.8,1.1-0.8,2.7c0,5.3,0,12.8,0.2,16.3c0.1,1.6,0.4,2.2,1.5,2.5c0.8,0.2,1.9,0.5,3.1,0.5
		c0.2,0.4,0.2,2.1-0.2,2.5c-1.1,0-3.3-0.2-7.6-0.2c-3.5,0-6.6,0.2-7.5,0.2c-0.3-0.4-0.3-2.1,0-2.4C76.5,260.5,77.4,260.4,78.2,260.1
		z"/>
	<path class="st0" d="M126.3,263.1c-1.4,0-3.7-0.2-8-0.2c-3.3,0-6.3,0.2-7.5,0.2c-0.4-0.2-0.5-2.2-0.1-2.4c1.4-0.2,2.4-0.5,3.3-0.8
		c1.1-0.4,1.3-1,1.4-2.6c0.2-1.9,0.2-6.7,0.2-10.8v-7.4c0-0.4-0.2-1.1-0.7-1.6c-0.8-0.9-2.2-1.4-3.7-1.9c-0.3-0.4,0-1.7,0.3-2
		c2.4-0.2,7.2-1.1,10.3-2.3v13.5c0,4.2,0,9.2,0.1,12.6c0,1.3,0.4,2.1,1.5,2.5c1.1,0.3,1.5,0.4,3.3,0.7
		C126.9,261,126.7,262.8,126.3,263.1z M120.4,224.5c-0.4,0.3-3.2,0.5-3.7,0.2c-1.1-0.6-1.7-1.6-2.1-3.3c-0.1-0.5,0-2,0.4-2.4
		c0.7-0.6,2.4-1.4,3.9-1.4c1.2,0,2.1,0.5,2.3,0.7c0.5,0.5,0.8,1.5,0.8,2.3C122,222,121.4,223.7,120.4,224.5z"/>
	<path class="st0" d="M142.9,238.6c-1.2-1.9-3.5-2.8-5.7-2.8c-1.8,0-2.8,0.5-3.2,0.8c-0.8,0.6-2.1,3.1-3.2,5.5
		c-0.2,0.3-2.5-0.8-2.4-1.5c0.2-1.2,1.4-4.3,1.9-4.8c3.3-2.2,8.1-4.2,10.1-4.2c3.3,0,5.9,1.6,7.6,4.1c1.4,2.2,1.8,4.7,1.8,7.6
		c0,3.9-0.3,9.8-0.3,12.9c0,1.7,0.7,3,2.9,3c1.2,0,1.8-0.2,2.7-0.5c0,0.4-0.1,2.3-0.4,2.6c-1.7,1.9-4.5,2.6-6.4,2.6
		c-2.1,0-3.4-0.9-4-2.1c-0.3-0.5-0.5-1.2-0.5-1.8c0-0.1-0.3-0.2-0.4-0.1c-4,2.5-7.1,4-9.2,4c-1.4,0-3-0.8-4.2-2
		c-1.6-1.7-2.7-4.1-2.7-6.7c0-1.7,1.1-4.1,1.5-4.6c2.6-1.4,11.5-3.4,14.5-4.9c0.2-0.1,0.5-0.5,0.5-0.7c0.2-0.7,0.2-1.4,0.2-1.9
		C144,241.6,143.8,239.9,142.9,238.6z M143.5,248.1c-2.6,0.9-7.5,2.5-9,3.4c-0.4,0.2-0.8,1.6-0.8,2.5c0,2.9,2.1,5.1,5.3,5.1
		c1,0,2.7-0.5,3.8-1.2c0.6-0.4,0.8-1,0.9-1.8c0.2-1.4,0.2-6.3,0.2-7.6C143.9,248.4,143.6,248.1,143.5,248.1z"/>
	<path class="st0" d="M164,236.6c-0.2,0-0.3,0.3-0.3,0.4c-0.1,3.3-0.1,9.5,0,13.4c0,3.2,0.2,4.7,0.5,5.8c0.6,2.1,2.7,3,4.6,3
		c2.1,0,3.2-0.3,4.8-1.2c0.2,0.2-0.1,2.3-0.3,2.6c-1.8,2.4-5.1,3.3-7.7,3.3c-3.1,0-5.6-1.3-6.8-3.7c-1.1-1.9-1.1-3.9-1.1-8.7
		c0-4.3,0.1-11,0.1-14.1c0-0.2-0.2-0.6-0.5-0.7l-4.3-0.3c-0.1-0.5,0.4-2.4,0.8-2.7c1.1-0.2,3-0.6,3.6-0.8c0.2-0.1,0.4-0.3,0.4-0.6
		v-6.6c1.1-0.6,4.1-2.4,5-3.4c0.3-0.2,1.2-0.2,1.4-0.1c-0.2,1.3-0.4,4.8-0.4,10.1c0,0.2,0.2,0.5,0.4,0.5c3.6,0,8.3-0.2,9.5-0.3
		c-0.2,1.1-0.6,3.2-0.8,4.4C171.2,236.6,167,236.6,164,236.6z"/>
	<path class="st0" d="M190.4,238.6c-1.2-1.9-3.5-2.8-5.7-2.8c-1.8,0-2.8,0.5-3.2,0.8c-0.8,0.6-2.1,3.1-3.2,5.5
		c-0.2,0.3-2.5-0.8-2.4-1.5c0.2-1.2,1.4-4.3,1.9-4.8c3.3-2.2,8.1-4.2,10.1-4.2c3.3,0,5.9,1.6,7.6,4.1c1.4,2.2,1.8,4.7,1.8,7.6
		c0,3.9-0.3,9.8-0.3,12.9c0,1.7,0.7,3,2.9,3c1.2,0,1.7-0.2,2.7-0.5c0,0.4-0.1,2.3-0.4,2.6c-1.8,1.9-4.5,2.6-6.4,2.6
		c-2.1,0-3.4-0.9-4-2.1c-0.3-0.5-0.5-1.2-0.5-1.8c0-0.1-0.3-0.2-0.4-0.1c-4,2.5-7.1,4-9.2,4c-1.4,0-3-0.8-4.2-2
		c-1.6-1.7-2.7-4.1-2.7-6.7c0-1.7,1.1-4.1,1.5-4.6c2.6-1.4,11.5-3.4,14.5-4.9c0.2-0.1,0.5-0.5,0.5-0.7c0.2-0.7,0.2-1.4,0.2-1.9
		C191.6,241.6,191.3,239.9,190.4,238.6z M191,248.1c-2.6,0.9-7.5,2.5-9,3.4c-0.4,0.2-0.8,1.6-0.8,2.5c0,2.9,2.1,5.1,5.3,5.1
		c1,0,2.7-0.5,3.8-1.2c0.6-0.4,0.8-1,0.9-1.8c0.2-1.4,0.2-6.3,0.2-7.6C191.4,248.4,191.2,248.1,191,248.1z"/>
	<path class="st0" d="M248.3,219.3c-2.4-1.2-5.8-1.7-9.4-1.7c-11,0-17,8.1-17,20.8c0,11.6,6.5,22.2,20.1,22.2c3.6,0,6.5-1.1,8.2-2.4
		c1.9-1.5,3.8-4.2,5.9-7.6c0.5-0.1,1.9,0.7,2.1,1.3c-0.8,3.1-4.1,9.2-5.9,10.3c-2.2,0.8-7.2,2-11.9,2c-17,0-26.6-9.4-26.6-25.1
		c0-8.3,3.8-16.5,12.2-21c4-2.2,9.1-3.5,15.4-3.5c6.7,0,11.8,1.3,15.3,1.5c-0.5,2.7-1.1,8.4-1.2,11.9c-0.3,0.5-2.6,0.7-2.6,0.2
		C252.1,222.2,251.2,220.7,248.3,219.3z"/>
	<path class="st0" d="M291,246.9c0,6-2.4,11-7.1,14.1c-2.1,1.4-5.8,2.8-9,2.8c-11.3,0-15.4-8.5-15.4-16.4c0-6,2.7-10.1,6.6-12.8
		c2.7-1.8,6.5-3.1,10.1-3.1C285.5,231.5,291,238.3,291,246.9z M270.2,235.7c-2,1.3-4,4-4,9.7c0,9,4.6,15,10.6,15
		c1.7,0,3.3-0.5,4.6-1.6c1.9-1.8,2.9-4.8,2.9-9.4c0-8.9-4.3-14.7-10.6-14.7C272.5,234.7,271.2,235.1,270.2,235.7z"/>
	<path class="st0" d="M289.5,260.7c1.4-0.3,2.4-0.5,3.3-0.8c0.8-0.5,1.1-1.2,1.2-2.1c0.3-2.3,0.3-7.5,0.3-20c0-5.4,0-15.2-0.2-17.7
		c-0.1-0.8-0.2-2.1-1.2-2.4c-0.7-0.2-2.2-0.8-4.1-1c-0.4-0.2-0.3-1.8,0.1-2.1c4.2-0.3,7-0.3,11.6-0.7c0.2,0.1,0.6,0.6,0.6,0.8
		c-0.5,1.4-0.7,2.7-0.7,6.1c-0.1,3.8-0.1,10.1-0.1,16.8c0,11.9,0,17,0.2,19c0.1,2,0.3,3,1.7,3.4c1,0.3,1.4,0.5,3.2,0.7
		c0.2,0.4,0.1,2-0.4,2.4c-1.4,0-3.7-0.2-8-0.2c-3,0-6.7,0.2-7.6,0.2C289.3,262.7,289.1,261.1,289.5,260.7z"/>
	<path class="st0" d="M306.2,260.7c1.4-0.3,2.4-0.5,3.3-0.8c0.8-0.5,1.1-1.2,1.2-2.1c0.3-2.3,0.3-7.5,0.3-20c0-5.4,0-16.7-0.2-19.1
		c-0.1-0.8-0.2-2.1-1.2-2.4c-0.7-0.2-2.2-0.5-4.1-0.7c-0.4-0.2-0.3-1.8,0.1-2.1c4-0.4,7.4-0.7,11.6-1.5c0.2,0.1,0.6,0.6,0.6,0.8
		c-0.5,1.4-0.7,2.7-0.7,6.1c-0.1,3.8-0.1,12-0.1,18.6c0,11.9,0,17,0.2,19c0.1,2,0.3,3,1.7,3.4c1,0.3,1.4,0.5,3.2,0.7
		c0.2,0.4,0.1,2-0.4,2.4c-1.4,0-3.7-0.2-8-0.2c-3,0-6.7,0.2-7.6,0.2C305.9,262.7,305.8,261.1,306.2,260.7z"/>
	<path class="st0" d="M348.5,255.8c0.1,0.6-0.3,2.1-0.5,2.4c-3.2,3.7-8.7,5.6-12.2,5.6c-4,0-7.1-1.2-9.4-3.6
		c-3.1-3.2-4.5-7.9-4.5-12.3c0-6.8,3-11.3,6.8-13.8c2.4-1.6,5.8-2.6,8.4-2.6c7.5,0,10.2,6.5,10.8,11c0.1,0.2,0.5,0.6,1.2,0.8
		c0,0.4-0.5,1.7-0.7,2c-3.3,0.8-13.5,1.4-20.1,1.7c-0.3,0-0.4,0.5-0.4,0.8c0.1,2.4,1.2,5.6,3.2,7.5c2.2,2.2,4.7,3.2,8.2,3.2
		c3,0,5.9-1,8.7-3.2C348.2,255.4,348.5,255.7,348.5,255.8z M328.1,243.3c0,0.2,0.2,0.5,0.5,0.5c2.6,0.1,11.4-0.2,12.9-0.5
		c0.2-0.2,0.4-0.4,0.5-0.7c-0.5-3.9-3-8.1-7.1-8.1C331.1,234.6,328.5,238,328.1,243.3z"/>
	<path class="st0" d="M372.1,233c1.2,0.5,2.7,0.8,4.3,0.8c2.7,0,3.7-0.7,4.6-1.7c0.2-0.1,1,0.5,1.1,0.6c0,0.9-1.1,3.6-1.9,4.4
		c-0.5,0.6-1.1,1-2.7,1h-1.8c-0.1,0-0.2,0.2-0.2,0.3c0.2,0.7,0.5,2.2,0.5,3.3c0,5.3-2,8-4.6,9.9c-2.9,2.2-5.9,2.9-8,3.1
		c-0.2,0.1-1.4,0.2-1.6,0.2c-0.6,0.2-1.9,0.8-1.9,1.9c0,1.4,1.4,2.1,3.1,2.3c3.7,0.3,10.1,0.6,12.6,1.5c2.9,1,5.3,3.5,5.3,7.5
		c0,4.9-3.5,9.8-9.4,12.7c-3.1,1.5-6,2.1-8.8,2.1c-3.7,0-6.7-0.8-9.3-2.7c-2.4-1.9-3.7-4.7-3.7-7c0-0.7,0.2-2.6,0.6-3
		c0.8-1.1,3.9-3.3,7.2-5.7c0-0.1,0.1-0.2,0-0.2c-3-1.1-4.5-3.1-4.8-4.6c0-0.4,0.3-1.2,0.4-1.4c1.1-0.7,3.9-2.3,5-3.2
		c0.1-0.1,0.1-0.3-0.1-0.4c-4-1.4-7.1-4.6-7.1-10.8c0-3.2,1.4-6.5,4.3-8.8c2.1-1.6,6.7-3.3,9.7-3.3C368,231.6,369.9,232.2,372.1,233
		z M375.7,271.4c0-2.6-1.4-4.3-3.8-5.2c-2.2-0.8-6-1.2-9.4-1.2c-1.1,0-2.1,0.3-2.7,0.7c-3,1.9-4.2,3.7-4.2,5.8c0,1.9,0.8,3.6,2.4,5
		c2.2,1.8,4.9,2.4,7.9,2.4C372.9,278.9,375.7,275.1,375.7,271.4z M357.2,241.9c0,4.7,2.2,9.7,7.5,9.7c1.1,0,2.6-0.5,3.4-1.4
		c1.2-1.1,2.1-3.5,2.1-6.4c0-4.6-1.8-9.4-7.4-9.4C359.4,234.5,357.2,237.4,357.2,241.9z"/>
	<path class="st0" d="M405.9,255.8c0.1,0.6-0.3,2.1-0.5,2.4c-3.2,3.7-8.7,5.6-12.2,5.6c-4,0-7.1-1.2-9.4-3.6
		c-3.1-3.2-4.5-7.9-4.5-12.3c0-6.8,3-11.3,6.8-13.8c2.4-1.6,5.8-2.6,8.4-2.6c7.5,0,10.2,6.5,10.8,11c0.1,0.2,0.5,0.6,1.2,0.8
		c0,0.4-0.5,1.7-0.7,2c-3.3,0.8-13.5,1.4-20.1,1.7c-0.3,0-0.4,0.5-0.4,0.8c0.1,2.4,1.2,5.6,3.2,7.5c2.2,2.2,4.7,3.2,8.2,3.2
		c3,0,5.9-1,8.7-3.2C405.6,255.4,405.8,255.7,405.9,255.8z M385.4,243.3c0,0.2,0.2,0.5,0.5,0.5c2.6,0.1,11.4-0.2,12.9-0.5
		c0.2-0.2,0.4-0.4,0.5-0.7c-0.5-3.9-3-8.1-7.1-8.1C388.5,234.6,385.9,238,385.4,243.3z"/>
</g>
<g>
	<path class="st0" d="M85,298.4c0,0,0.1-0.1,0.1-0.1c0.3,0,0.5,0.1,1.1,0.1c0.8,0,1.3-0.1,1.8-0.4c1.2-0.7,1.5-1.9,1.5-3.5
		c0-2.4-1.1-4.3-4.2-4.3c-0.3,0-0.8,0-1,0.1c-0.1,0-0.2,0.2-0.2,0.3c0,0.6-0.1,2.7-0.1,6.2c0,1.6-0.1,4.7,0,6.7c0,1.3,0.2,1.5,1,1.6
		c0.4,0.1,0.8,0.1,1.3,0.2c0.1,0.1,0.1,0.4,0,0.4c-0.7,0-2.2-0.1-3.3-0.1c-1.2,0-2.6,0.1-3.2,0.1c-0.1-0.1-0.1-0.4,0-0.4
		c0.5-0.1,0.9-0.1,1.2-0.2c0.5-0.1,0.8-0.2,0.9-1.5c0.1-0.8,0.1-2.5,0.1-6.2c0-1.9,0-4.9-0.1-5.7c0-0.9-0.1-1.3-0.8-1.5
		c-0.3-0.1-0.7-0.2-1.3-0.2c0-0.1,0-0.4,0.1-0.4c0.5,0,1.7,0.1,2.9,0.1c1.4,0,2.3-0.1,3.8-0.1c0.9,0,2.3,0.2,3.3,0.9
		c0.8,0.7,1.6,1.7,1.6,3.4c0,2.3-1.3,3.8-2.6,4.4c-0.9,0.4-1.7,0.7-2.7,0.7c-0.4,0-0.9,0-1.1-0.1C85.2,298.8,85,298.5,85,298.4z"/>
	<path class="st0" d="M102.2,289.5c0.6,0,1.5,0.1,2.9,0.1h5c1,0,2.2,0,2.7-0.1c0,0,0.1,0.1,0.1,0.1c-0.2,0.8-0.4,2.5-0.5,3.4
		c-0.1,0.1-0.4,0.1-0.4,0c-0.1-0.8-0.2-1.3-0.3-1.7c-0.2-0.6-0.4-0.9-1.4-1c-0.7-0.1-3.5-0.1-3.9,0c-0.2,0-0.3,0.2-0.3,0.4
		c-0.1,1.1-0.1,5.5-0.1,6c0,0.1,0.1,0.2,0.1,0.2c0.7,0.1,3.3,0,4,0c0.8-0.1,1-0.4,1.1-0.9c0.1-0.3,0.2-0.6,0.2-0.9
		c0.1-0.1,0.4-0.1,0.5,0c-0.1,0.5-0.2,1.5-0.2,2.3c0,1,0.1,1.7,0.1,2.2c-0.1,0.1-0.4,0.1-0.4,0c-0.1-0.5-0.1-0.6-0.2-0.9
		c-0.1-0.3-0.2-0.8-1-0.9c-0.7-0.1-3.3-0.1-4,0c-0.1,0-0.1,0.2-0.1,0.2c0,0.7,0,4.2,0.1,5.8c0,0.6,0.3,0.9,0.6,0.9
		c0.5,0.1,1.5,0.2,3.2,0.2c1.6,0,1.9-0.3,2.3-0.7c0.4-0.4,1-1.4,1.4-2.4c0.1,0,0.3,0.1,0.4,0.2c-0.1,0.7-0.8,2.8-1,3.4
		c-0.2,0.3-0.3,0.3-1.5,0.3c-1.6,0-2.7-0.1-6.3-0.1c-1.7,0-2.5,0.1-3.6,0.1c-0.1-0.1-0.1-0.3,0-0.4c0.7-0.1,1.2-0.1,1.7-0.2
		c0.6-0.2,0.8-0.5,0.9-1.5c0-0.6,0.1-3.6,0.1-6.6c0-2.5,0-4.9-0.1-5.4c-0.1-1-0.2-1.2-0.8-1.4c-0.3-0.1-0.7-0.2-1.2-0.2
		C102.1,289.9,102.1,289.6,102.2,289.5z"/>
	<path class="st0" d="M124.1,289.5c0.5,0,1.7,0.1,2.7,0.1c0.6,0,0.9,0,1.2,0c0.1,0.2,0.3,0.6,1,1.4c2.7,3.4,8.5,10.5,9.6,11.8
		l0.1-0.1c0-3.4,0.1-9.4-0.1-11.1c-0.1-0.8-0.2-1.2-0.9-1.4c-0.4-0.1-0.9-0.2-1.6-0.3c-0.1-0.1,0-0.3,0-0.4c0.7,0,1.8,0.1,3,0.1
		c0.8,0,2.1-0.1,2.4-0.1c0.1,0.1,0.1,0.3,0,0.4c-0.5,0.1-0.7,0.1-1,0.2c-0.7,0.2-0.8,0.8-0.9,1.4c-0.2,2.1-0.1,7.2-0.2,10.6
		c0,1.2,0,2.6,0.1,3.5c-0.3,0-1.2,0-1.5,0c-1.3-1.9-9.3-11.8-10.4-13.3c0,0-0.1,0-0.1,0c-0.1,2.6,0,9.4,0,10.8
		c0.1,1.3,0.4,1.6,1,1.7c0.4,0.1,0.9,0.2,1.4,0.2c0.1,0.1,0.1,0.4,0,0.4c-0.5,0-1.6-0.1-2.9-0.1c-1.3,0-2.1,0.1-2.7,0.1
		c-0.1-0.1-0.1-0.4,0-0.4c0.5-0.1,0.8-0.1,1.1-0.2c0.6-0.2,0.9-0.4,1-1.7c0.1-1.2,0.2-6,0.2-11.4c0-0.3-0.2-0.9-0.6-1.3
		c-0.5-0.5-1.1-0.6-2-0.7C124,289.9,124,289.6,124.1,289.5z"/>
	<path class="st0" d="M152,289.5c0.5,0,1.7,0.1,2.7,0.1c0.6,0,0.9,0,1.2,0c0.1,0.2,0.3,0.6,1,1.4c2.7,3.4,8.5,10.5,9.6,11.8l0.1-0.1
		c0-3.4,0.1-9.4-0.1-11.1c-0.1-0.8-0.2-1.2-0.9-1.4c-0.4-0.1-0.9-0.2-1.6-0.3c-0.1-0.1,0-0.3,0-0.4c0.7,0,1.8,0.1,3,0.1
		c0.8,0,2.1-0.1,2.4-0.1c0.1,0.1,0.1,0.3,0,0.4c-0.5,0.1-0.7,0.1-1,0.2c-0.7,0.2-0.8,0.8-0.9,1.4c-0.2,2.1-0.1,7.2-0.2,10.6
		c0,1.2,0,2.6,0.1,3.5c-0.3,0-1.2,0-1.5,0c-1.3-1.9-9.3-11.8-10.4-13.3c0,0-0.1,0-0.1,0c-0.1,2.6,0,9.4,0,10.8
		c0.1,1.3,0.4,1.6,1,1.7c0.4,0.1,0.9,0.2,1.4,0.2c0.1,0.1,0.1,0.4,0,0.4c-0.5,0-1.6-0.1-2.9-0.1c-1.3,0-2.1,0.1-2.7,0.1
		c-0.1-0.1-0.1-0.4,0-0.4c0.5-0.1,0.8-0.1,1.1-0.2c0.6-0.2,0.9-0.4,1-1.7c0.1-1.2,0.2-6,0.2-11.4c0-0.3-0.2-0.9-0.6-1.3
		c-0.5-0.5-1.1-0.6-2-0.7C151.9,289.9,151.9,289.6,152,289.5z"/>
	<path class="st0" d="M182.3,304.7c0.7,0.5,1.5,0.7,2.6,0.7c1.6,0,2.8-1,2.8-2.9c0-1.8-1.1-2.7-3.4-4.1c-2.1-1.3-3.7-2.7-3.7-4.9
		c0-2.7,2.2-4.3,4.9-4.3c1.6,0,2.6,0.3,3.6,0.4c-0.2,0.9-0.3,2-0.4,3.4c-0.1,0.1-0.4,0.1-0.4,0c-0.1-1.7-0.4-2.4-1.1-2.8
		c-0.6-0.3-1.2-0.5-2-0.5c-1.8,0-2.8,1.3-2.8,2.8c0,1.4,0.7,2.3,1.7,3.1c1,0.7,2.1,1.3,2.9,1.8c1.3,0.9,2.6,2,2.6,3.9
		c0,2.6-2.1,4.7-5.5,4.7c-1.5,0-3-0.4-3.5-0.8c-0.3-0.4-0.5-2.8-0.6-3.6c0.1-0.1,0.4-0.2,0.4-0.1
		C180.9,303.2,181.4,304.2,182.3,304.7z"/>
	<path class="st0" d="M198.9,289.5c0.8,0,1.9,0.1,3.2,0.1c0.9,0,2.2-0.1,2.5-0.1c0.1,0.1,0.1,0.3,0,0.4c-0.2,0-0.6,0.1-0.8,0.2
		c-0.4,0.1-0.5,0.3-0.2,0.9c0.7,1.5,2.9,5.7,3.4,6.6h0.1c0.9-1.5,2.7-4.8,3.3-6.3c0.3-0.7,0.1-1-0.6-1.2c-0.3-0.1-0.6-0.1-1.1-0.2
		c-0.1-0.1-0.1-0.4,0.1-0.4c0.7,0,1.8,0.1,2.6,0.1c1,0,1.6-0.1,2.6-0.1c0.1,0.1,0.1,0.3,0,0.4l-1.1,0.2c-0.8,0.2-1.2,0.8-1.7,1.6
		c-1.1,1.8-3.2,5.5-3.6,6.5c-0.1,0.2-0.2,0.6-0.2,0.9l0.1,4.2c0,1,0.1,1.6,0.9,1.8c0.4,0.1,0.5,0.1,1.2,0.2c0,0.1,0,0.3-0.1,0.4
		c-0.6,0-2-0.1-3.3-0.1c-1.5,0-2.5,0.1-3.2,0.1c-0.1-0.1-0.1-0.3,0-0.4c0.6-0.1,1.1-0.1,1.5-0.2c0.7-0.2,0.8-0.7,0.9-1.5l0.1-3.8
		c0-0.4-0.1-1-0.2-1.3c-0.6-1.3-2.1-4.3-3.1-6.1c-1.1-2-1.4-2.1-2.1-2.3c-0.3-0.1-0.7-0.1-1.1-0.2
		C198.8,289.9,198.8,289.6,198.9,289.5z"/>
	<path class="st0" d="M222.5,289.5c0.6,0,1.4,0.1,3,0.1c1.4,0,2.4-0.1,2.9-0.1c0.1,0,0.1,0.4,0,0.4c-0.5,0.1-0.8,0.1-1.1,0.2
		c-0.6,0.2-0.7,0.5-0.7,1.1c0,0.8,0,3.7-0.1,5.9c0,2.3,0,5.5,0.1,6.7c0,0.4,0.2,0.7,0.4,0.8c0.5,0.2,3.3,0.2,4.4,0.2
		c0.5,0,1-0.2,1.4-0.8c0.4-0.5,1.1-1.6,1.6-2.8c0.1-0.1,0.4,0,0.4,0.1c-0.2,0.9-0.8,3.2-1.2,3.9c-0.1,0.2-0.4,0.3-1,0.3
		c-1.5,0-5.8-0.1-7.1-0.1c-1.1,0-2.6,0.1-3.2,0.1c-0.1-0.1-0.1-0.3,0-0.4c0.6-0.1,1-0.1,1.4-0.2c0.5-0.1,0.8-0.3,0.9-1.2
		c0.1-0.7,0.1-1.6,0.1-7.2c0-2.8,0-4.3,0-4.9c-0.1-1.1-0.1-1.4-0.9-1.6c-0.3-0.1-0.9-0.2-1.2-0.2
		C222.4,289.9,222.5,289.6,222.5,289.5z"/>
	<path class="st0" d="M239.8,289.5c0.6,0,1.9,0.1,3,0.1c1.5,0,2.4-0.1,2.9-0.1c0.1,0.1,0.1,0.3,0,0.4c-0.6,0.1-0.9,0.2-1.2,0.3
		c-0.3,0.1-0.4,0.4-0.3,0.7c0.8,2.3,4.1,10.8,4.5,11.7c0,0,0.1,0,0.1,0c0.4-0.9,3.5-8.8,4.3-11c0.3-0.9,0.2-1.3-0.5-1.5
		c-0.4-0.1-0.7-0.2-1.3-0.2c0-0.1,0-0.4,0.1-0.4c0.5,0,1.5,0.1,2.6,0.1c1.2,0,2-0.1,2.5-0.1c0,0.1,0,0.3,0,0.4
		c-0.4,0.1-0.8,0.1-1,0.2c-0.8,0.2-1,0.7-1.7,2.3c-0.7,1.8-2.8,6.9-4.1,10.1c-0.5,1.3-0.8,2.3-1.1,3.1c-0.3-0.1-0.9-0.1-1.1,0
		c-0.3-1-0.7-2.2-1.2-3.5c-1.3-3.5-3.1-8.3-3.9-10.3c-0.5-1.3-0.8-1.6-1.5-1.8l-1.1-0.2C239.7,289.9,239.7,289.6,239.8,289.5z"/>
	<path class="st0" d="M263.4,303c1.5-3.7,3.9-10.5,4.5-12.1c0.2-0.5,0.3-0.9,0.3-1.3c0.1,0,0.4,0,0.7,0c0.4,0,0.6,0,0.7,0l0.3,1.1
		c0.5,1.6,3.4,10.5,4.2,12.5c0.7,1.6,0.8,1.7,2.6,2c0.1,0.1,0,0.4-0.1,0.4c-0.7,0-2.1-0.1-2.9-0.1c-1,0-2.5,0-3.1,0.1
		c0-0.1-0.1-0.3,0-0.4c0.5-0.1,0.9-0.1,1.3-0.3c0.4-0.2,0.4-0.4,0.3-0.7c-0.3-1.1-1.2-3.8-1.7-5.1c0,0-0.2-0.1-0.2-0.1
		c-0.3,0-0.8,0-2.2,0c-1.6,0-1.9,0-2.2,0c-0.1,0-0.2,0.1-0.2,0.2c-0.5,1.3-1.5,4.1-1.6,4.8c-0.1,0.4-0.1,0.9,0.8,1
		c0.3,0.1,0.6,0.2,1.1,0.2c0.1,0.1,0,0.4-0.1,0.4c-0.6,0-1.8-0.1-3-0.1c-1.2,0-2,0.1-2.5,0.1c-0.1,0-0.1-0.4,0-0.4
		C262.3,305,262.6,304.8,263.4,303z M268.2,292c-0.4,1.2-1.6,4.8-2,5.9c0,0.1,0,0.1,0.1,0.2c0.2,0,0.8,0,2.1,0c0.6,0,1.6,0,1.8,0
		c0,0,0.1-0.1,0.1-0.2l-1.9-5.9C268.3,291.9,268.2,291.9,268.2,292z"/>
	<path class="st0" d="M284.1,289.5c0.5,0,1.7,0.1,2.7,0.1c0.6,0,0.9,0,1.2,0c0.1,0.2,0.3,0.6,1,1.4c2.7,3.4,8.5,10.5,9.6,11.8
		l0.1-0.1c0-3.4,0.1-9.4-0.1-11.1c-0.1-0.8-0.2-1.2-0.9-1.4c-0.4-0.1-0.9-0.2-1.6-0.3c-0.1-0.1,0-0.3,0-0.4c0.7,0,1.8,0.1,3,0.1
		c0.8,0,2.1-0.1,2.4-0.1c0.1,0.1,0.1,0.3,0,0.4c-0.5,0.1-0.7,0.1-1,0.2c-0.7,0.2-0.8,0.8-0.9,1.4c-0.2,2.1-0.1,7.2-0.2,10.6
		c0,1.2,0,2.6,0.1,3.5c-0.3,0-1.2,0-1.5,0c-1.3-1.9-9.3-11.8-10.4-13.3c0,0-0.1,0-0.1,0c-0.1,2.6,0,9.4,0,10.8
		c0.1,1.3,0.4,1.6,1,1.7c0.4,0.1,0.9,0.2,1.4,0.2c0.1,0.1,0.1,0.4,0,0.4c-0.5,0-1.6-0.1-2.9-0.1c-1.3,0-2.1,0.1-2.7,0.1
		c-0.1-0.1-0.1-0.4,0-0.4c0.5-0.1,0.8-0.1,1.1-0.2c0.6-0.2,0.9-0.4,1-1.7c0.1-1.2,0.2-6,0.2-11.4c0-0.3-0.2-0.9-0.6-1.3
		c-0.5-0.5-1.1-0.6-2-0.7C284,289.9,284.1,289.6,284.1,289.5z"/>
	<path class="st0" d="M311.6,289.5c0.6,0,1.9,0.1,3.2,0.1c1.4,0,2.2-0.1,2.7-0.1c0.1,0.1,0.1,0.3,0,0.4l-1.1,0.2
		c-0.6,0.2-0.7,0.5-0.7,1.4c-0.1,1-0.1,3.6-0.1,5.8c0,2.8,0,5.3,0.1,6.2c0.1,0.8,0.1,1.3,0.8,1.4c0.3,0.1,0.8,0.2,1.3,0.2
		c0.1,0.1,0,0.4,0,0.4c-0.7,0-1.6-0.1-2.8-0.1c-1.5,0-2,0.1-3.3,0.1c-0.1-0.1-0.1-0.3,0-0.4c0.4,0,0.9-0.1,1.1-0.2
		c0.7-0.1,0.8-0.5,0.8-1.2c0.1-0.8,0.1-4.7,0.1-7.1c0-2.1,0-4.1-0.1-5.3c-0.1-0.6-0.1-1.1-0.7-1.3c-0.3-0.1-0.7-0.2-1.4-0.2
		C311.6,289.9,311.6,289.6,311.6,289.5z"/>
	<path class="st0" d="M329.1,303c1.5-3.7,3.9-10.5,4.5-12.1c0.2-0.5,0.3-0.9,0.3-1.3c0.1,0,0.4,0,0.7,0c0.4,0,0.6,0,0.7,0l0.3,1.1
		c0.5,1.6,3.4,10.5,4.2,12.5c0.7,1.6,0.8,1.7,2.6,2c0.1,0.1,0,0.4-0.1,0.4c-0.7,0-2.1-0.1-2.9-0.1c-1,0-2.5,0-3.1,0.1
		c0-0.1-0.1-0.3,0-0.4c0.5-0.1,0.9-0.1,1.3-0.3c0.4-0.2,0.4-0.4,0.3-0.7c-0.3-1.1-1.2-3.8-1.7-5.1c0,0-0.2-0.1-0.2-0.1
		c-0.3,0-0.8,0-2.2,0c-1.6,0-1.9,0-2.2,0c-0.1,0-0.2,0.1-0.2,0.2c-0.5,1.3-1.5,4.1-1.6,4.8c-0.1,0.4-0.1,0.9,0.8,1
		c0.3,0.1,0.6,0.2,1.1,0.2c0.1,0.1,0,0.4-0.1,0.4c-0.6,0-1.8-0.1-3-0.1c-1.2,0-2,0.1-2.5,0.1c-0.1,0-0.1-0.4,0-0.4
		C328.1,305,328.3,304.8,329.1,303z M334,292c-0.4,1.2-1.6,4.8-2,5.9c0,0.1,0,0.1,0.1,0.2c0.2,0,0.8,0,2.1,0c0.6,0,1.6,0,1.8,0
		c0,0,0.1-0.1,0.1-0.2l-1.9-5.9C334.1,291.9,334,291.9,334,292z"/>
</g>
<path class="st0" d="M189.6,342.3c-0.5,0-1.3-0.1-2.8-0.1c-1.5,0-2.5,0.1-2.8,0.1c0,0,0-0.3,0-0.4c0.4,0,0.6,0,1-0.1
	c0.6-0.1,0.8-0.4,0.8-1.5c0-1.1,0-3.1,0-5.3c0-2.3,0-4.5,0-4.9c0-0.3-0.1-0.7-0.5-0.8c-0.3,0-0.7,0-1.2-0.1c0,0,0-0.3,0-0.4
	c1.2-0.1,2.6-0.6,3.4-1.1c0,0,0.2,0,0.2,0.1c0,0.7-0.1,1.2-0.1,6.1c0,1.3,0,5.3,0.1,6.2c0,1,0.1,1.3,0.7,1.5
	c0.4,0.1,0.6,0.1,1.2,0.2C189.7,342,189.6,342.2,189.6,342.3z"/>
<path class="st0" d="M207,331.2c0,1.1-0.6,2-2.5,3.3c0,0,0,0.1,0,0.1c2,1.4,3,2.2,3,3.9c0,2-1.9,3.9-4.4,3.9c-3,0-4.1-2-4.1-3.5
	c0-1,0.6-2,3-3.7c0.1,0,0.1-0.1,0-0.1c-1.7-1.2-2.4-2.2-2.4-3.6c0-1,0.5-2,1.2-2.7c0.7-0.6,1.8-1.1,2.8-1.1
	C205.5,327.8,207,329.2,207,331.2z M205.8,339.6c0-1.7-1-2.6-3.4-4.1c0,0-0.2,0-0.2,0c-1.2,1-1.8,1.9-1.8,3.1c0,1.7,1.2,3.3,3.2,3.3
	C204.8,341.9,205.8,341.2,205.8,339.6z M200.9,330.7c0,1.6,1.1,2.4,3,3.6c0.1,0,0.1,0,0.2,0c1.2-1,1.5-2,1.5-2.9c0-1.8-1.1-3-2.6-3
	C201.8,328.3,200.9,329.2,200.9,330.7z"/>
<path class="st0" d="M224.5,328.2c-0.7,2.3-5.6,12.8-6.3,14.6c0,0.1-0.1,0.1-0.1,0.1c-0.1,0-0.5-0.2-0.5-0.3c0,0,0-0.2,0-0.2
	c1.3-2.7,5.1-10.4,5.7-12.4c0,0,0-0.1,0-0.1c-1.1,0-5.1-0.1-6.2,0c-0.7,0.1-0.9,0.4-1.5,1.6c0,0.1-0.4-0.1-0.4-0.1
	c0.3-1.1,0.6-2.3,0.8-3.4c0.4,0.1,1.1,0.2,1.8,0.2h4.5c0.8,0,1.9,0,2.3,0C224.4,328.1,224.5,328.2,224.5,328.2z"/>
<path class="st0" d="M233.2,334.2c0,0.1,0,0.2,0,0.1c1.1-0.6,2.3-1.1,3.3-1.1c1.8,0,3.4,1.7,3.4,4.1c0,2.1-0.9,3.5-2.4,4.5
	c-0.6,0.4-1.7,0.7-2.4,0.7c-3.1,0-4.4-2.4-4.4-5.1c0-4.6,3.9-8.9,9.2-10.7c0.1,0,0.2,0.3,0.2,0.4C236,329,233.9,331.9,233.2,334.2z
	 M233.5,334.8c-0.3,0.2-0.5,0.4-0.6,0.8c-0.1,0.5-0.1,0.9-0.1,1.4c0,3.4,1.5,4.9,3.2,4.9c1.4,0,2.3-1.3,2.3-3.5c0-2.5-1.5-4-3.1-4
	C234.5,334.3,234,334.5,233.5,334.8z"/>
<path class="st0" d="M164.5,336.8l-1.6-1.6l1.6-1.6l1.6,1.6L164.5,336.8z M165.3,332.8l1.6-1.6l1.6,1.6l-1.6,1.6L165.3,332.8z
	 M168.5,337.6l-1.6,1.6l-1.6-1.6l1.6-1.6L168.5,337.6z M169.2,333.6l1.6,1.6l-1.6,1.6l-1.6-1.6L169.2,333.6z"/>
<path class="st0" d="M254.1,336.8l-1.6-1.6l1.6-1.6l1.6,1.6L254.1,336.8z M254.9,332.8l1.6-1.6l1.6,1.6l-1.6,1.6L254.9,332.8z
	 M258.1,337.6l-1.6,1.6l-1.6-1.6l1.6-1.6L258.1,337.6z M258.8,333.6l1.6,1.6l-1.6,1.6l-1.6-1.6L258.8,333.6z"/>
<path class="st0" d="M140.7,190.1c7,0,14.5,0.3,22.1,0.6c7.7,0.4,15.6,1,23.6,1.6c8,0.7,16.1,1.5,24.2,2.3
	c8.1,0.8,16.2,1.7,24.1,2.4c8,0.7,15.8,1.4,23.3,1.9c7.6,0.5,14.9,0.7,21.8,0.8c1,0,2.1,0,3.1,0c5.8,0,11.4-0.1,16.5-0.2
	c6.1-0.2,11.6-0.5,16.5-0.8c4.9-0.4,9.2-0.9,12.7-1.4c3.5-0.6,6.2-1.1,8.1-1.6c1.8-0.5,2.8-0.9,2.8-0.9s-0.2,0.1-0.7,0.4
	c-0.4,0.2-1.1,0.6-2,1c-1.8,0.8-4.4,1.8-7.9,2.7c-3.5,1-7.7,2-12.7,2.8c-4.9,0.8-10.5,1.6-16.6,2.2c-6.1,0.6-12.8,0.9-19.8,1.1
	c-2.5,0-5.1,0.1-7.6,0.1c-4.7,0-9.6-0.1-14.5-0.3c-7.7-0.3-15.6-0.7-23.6-1.4c-8-0.7-16.1-1.4-24.2-2.3c-8.1-0.9-16.2-1.8-24.1-2.6
	c-7.9-0.8-15.8-1.7-23.3-2.2c-7.6-0.6-14.9-0.9-21.9-1c-2.9,0-5.6-0.1-8.4-0.1c-3.9,0-7.6,0-11.2,0.1c-6.1,0.1-11.6,0.4-16.6,0.7
	c-4.9,0.3-9.2,0.7-12.8,1.1c-3.5,0.4-6.3,0.7-8.2,0.9c-1.9,0.2-2.9,0.3-2.9,0.3s1-0.3,2.8-0.8c1.9-0.5,4.6-1.2,8.1-2
	c3.5-0.8,7.8-1.6,12.7-2.4c4.9-0.8,10.5-1.5,16.6-2.1C126.9,190.4,133.6,190.1,140.7,190.1"/>
<g>
	<path class="st0" d="M290.3,127.6l2.1,2.9l3.4,4c0.2,0.2,0.5,0.4,0.8,0.4c0.2,0,0.4-0.1,0.6-0.2l4.2-2.9c0.4-0.3,0.6-0.9,0.3-1.4
		l-1.9-3.6c0,0,0-0.1-0.1-0.1l-2.9-4c-0.2-0.2-0.4-0.4-0.7-0.4c-0.3,0-0.6,0-0.8,0.2l-4.8,3.6C290.1,126.5,290,127.1,290.3,127.6z"
		/>
	<path class="st0" d="M297.3,137.3l2.1,4.7c0,0.1,0.1,0.2,0.2,0.2l2.7,3.1c0.2,0.2,0.5,0.4,0.8,0.4c0.2,0,0.3,0,0.5-0.1l4.5-2.4
		c0.5-0.2,0.7-0.8,0.5-1.3l-1.6-4.2c0-0.1-0.1-0.2-0.1-0.2l-3-4.2c-0.3-0.4-0.9-0.6-1.4-0.3l-4.7,3
		C297.3,136.3,297.1,136.9,297.3,137.3z"/>
	<path class="st0" d="M273.2,109.7l3.5,3.9c0.1,0.1,0.2,0.2,0.3,0.2l3.5,1.8c0.2,0.1,0.3,0.1,0.5,0.1c0.3,0,0.6-0.1,0.8-0.3l3.5-3.8
		c0.4-0.4,0.4-1,0-1.4l-3.5-3.9c-0.1-0.1-0.1-0.1-0.2-0.2l-3.3-2.2c-0.4-0.3-1-0.2-1.4,0.2l-3.6,4.2
		C272.8,108.8,272.8,109.4,273.2,109.7z"/>
	<path class="st0" d="M282.3,118.6l2.8,2.9c0,0,0.1,0.1,0.1,0.1l3.3,2.8c0.2,0.2,0.4,0.2,0.7,0.2c0.2,0,0.5-0.1,0.7-0.3l3.8-3.3
		c0.4-0.3,0.5-0.9,0.2-1.4l-2-3.3c0-0.1-0.1-0.1-0.2-0.2l-3.5-3.3c-0.4-0.4-1-0.4-1.4,0l-4.3,4.2
		C281.9,117.5,281.9,118.2,282.3,118.6z"/>
	<path class="st0" d="M303.2,148.3l1.7,4.5c0,0.1,0,0.1,0.1,0.2l2.2,3.8c0.2,0.3,0.5,0.5,0.9,0.5c0.1,0,0.2,0,0.4-0.1l4.8-1.8
		c0.5-0.2,0.8-0.7,0.6-1.2l-1.4-5.3c0-0.1-0.1-0.2-0.1-0.3l-2-3.5c-0.3-0.5-0.8-0.7-1.3-0.4l-5.3,2.3
		C303.2,147.2,303,147.8,303.2,148.3z"/>
	<path class="st0" d="M311.5,171.6l0.6,5.8c0,0.1,0,0.2,0.1,0.3l1.2,3.1c0.2,0.4,0.5,0.7,1,0.7c0,0,0.1,0,0.1,0l5.8-0.4
		c0.6,0,1-0.5,1-1.1l-0.1-3.4c0-0.1,0-0.2,0-0.2l-1.6-6.2c-0.1-0.5-0.7-0.9-1.2-0.8l-5.9,1.1C311.8,170.6,311.5,171.1,311.5,171.6z"
		/>
	<path class="st0" d="M314.5,183.2c-0.6,0-1,0.5-1,1.1l0.1,5.1c0,0,0,0.1,0,0.1l0.7,5.1c0,0.3,0.2,0.5,0.3,0.6c0.3,0,0.7,0,1-0.1
		c2-0.2,4-0.4,5.9-0.6c0-0.1,0.1-0.2,0.1-0.3l0.4-5.2c0-0.1,0-0.1,0-0.2l-0.5-5.2c-0.1-0.6-0.6-1-1.1-0.9L314.5,183.2z"/>
	<path class="st0" d="M263.9,103.7l2.9,2.6c0.1,0.1,0.2,0.1,0.3,0.2l3.5,1.5c0.1,0.1,0.3,0.1,0.4,0.1c0.3,0,0.6-0.2,0.8-0.4l3-4.1
		c0.3-0.4,0.3-1-0.1-1.4l-3-3.1c-0.1-0.1-0.2-0.2-0.3-0.2l-3.3-1.4c-0.5-0.2-1-0.1-1.3,0.4l-3.2,4.5
		C263.5,102.7,263.5,103.3,263.9,103.7z"/>
	<path class="st0" d="M308.2,159.6l1,4.4c0,0.1,0,0.1,0.1,0.2l1.8,4c0.2,0.4,0.6,0.6,1,0.6c0.1,0,0.2,0,0.3,0l4.9-1.3
		c0.5-0.1,0.8-0.6,0.8-1.1l-0.2-3.2c0-0.1,0-0.2-0.1-0.3l-2.1-5.4c-0.2-0.5-0.7-0.8-1.3-0.6l-5.5,1.5
		C308.4,158.5,308.1,159.1,308.2,159.6z"/>
	<path class="st0" d="M103.1,152.3l5,2.2c0.1,0.1,0.3,0.1,0.4,0.1c0.4,0,0.8-0.2,0.9-0.6l1.6-3.1l2-4.9c0.2-0.5,0-1.1-0.5-1.3
		l-4.5-2.4c-0.5-0.3-1.1-0.1-1.4,0.3l-2.3,3.4c0,0.1-0.1,0.1-0.1,0.2l-1.7,4.7C102.3,151.5,102.6,152,103.1,152.3z"/>
	<path class="st0" d="M257.5,99.3c0.1,0.1,0.2,0.1,0.3,0.2l3.7,1.7c0.1,0.1,0.3,0.1,0.4,0.1c0.3,0,0.6-0.2,0.8-0.4l3-4.1
		c0.3-0.5,0.2-1.1-0.2-1.5l-4.2-3.1c-0.1,0-0.1-0.1-0.2-0.1l-3-1.4c-0.5-0.2-1.1,0-1.4,0.5l-2.4,4.4c-0.2,0.4-0.1,0.9,0.2,1.3
		L257.5,99.3z"/>
	<path class="st0" d="M98.5,163.9l5.7,1.8c0.1,0,0.2,0,0.3,0c0.4,0,0.9-0.3,1-0.7l1.2-3.8c0,0,0-0.1,0-0.1l0.9-4.2
		c0.1-0.5-0.2-1-0.6-1.2l-4.7-1.8c-0.5-0.2-1,0-1.3,0.5l-1.9,3.3c0,0.1-0.1,0.2-0.1,0.3l-1.2,4.7C97.7,163.2,98,163.8,98.5,163.9z"
		/>
	<path class="st0" d="M95.7,177.9l5.4,1.1c0.1,0,0.1,0,0.2,0c0.4,0,0.8-0.3,1-0.7l1.7-4.9c0-0.1,0.1-0.2,0.1-0.3l0.2-4.9
		c0-0.5-0.3-0.9-0.8-1.1l-4.9-1.3c-0.5-0.1-1.1,0.2-1.3,0.7l-2,6c0,0.1,0,0.2,0,0.2l-0.3,4C94.8,177.3,95.1,177.7,95.7,177.9z"/>
	<path class="st0" d="M93.9,191.4C93.9,191.5,93.9,191.5,93.9,191.4c2.4-0.5,4.8-0.9,7.1-1.3c0,0,0,0,0,0l0.4-4.1l0.1-4.7
		c0-0.5-0.4-1-0.9-1.1l-5.1-0.7c-0.5-0.1-1,0.2-1.1,0.7l-1.2,4.1c0,0.1,0,0.2,0,0.4l0.3,5.9C93.5,191,93.7,191.3,93.9,191.4z"/>
	<path class="st0" d="M108.5,140.3l4.8,3.1c0.2,0.1,0.4,0.2,0.6,0.2c0.3,0,0.6-0.1,0.8-0.4l3.1-4.1c0.1-0.1,0.1-0.2,0.1-0.2l1.6-4
		c0.2-0.5,0-1-0.4-1.3l-4.2-2.9c-0.4-0.3-1-0.2-1.4,0.2l-3,3.5c-0.1,0.1-0.1,0.1-0.1,0.2l-2.3,4.3
		C107.9,139.4,108.1,140,108.5,140.3z"/>
	<path class="st0" d="M120.3,132.5c0.2,0.2,0.4,0.2,0.7,0.2c0.3,0,0.6-0.1,0.8-0.4l2.7-3.2c0,0,0.1-0.1,0.1-0.1l2.4-3.8
		c0.3-0.4,0.2-1-0.2-1.4l-3.8-3.4c-0.4-0.3-1-0.3-1.4,0l-4.2,3.8c-0.1,0.1-0.2,0.2-0.2,0.3l-1.7,3c-0.2,0.4-0.1,1,0.3,1.3
		L120.3,132.5z"/>
	<path class="st0" d="M136.9,113.9c0.2,0.3,0.5,0.4,0.8,0.4c0.2,0,0.4-0.1,0.6-0.2l4.5-2.9c0.1-0.1,0.2-0.1,0.2-0.2l2.1-2.5
		c0.3-0.3,0.3-0.9,0.1-1.2l-3.1-4.9c-0.3-0.5-0.9-0.6-1.4-0.4l-2.9,1.6c-0.1,0-0.1,0.1-0.2,0.1l-4.4,3.9c-0.4,0.4-0.5,1-0.1,1.4
		L136.9,113.9z"/>
	<path class="st0" d="M146.7,106.4c0.2,0.3,0.5,0.5,0.9,0.5c0.2,0,0.3,0,0.5-0.1l4.1-2c0.1,0,0.2-0.1,0.2-0.2l2.9-2.6
		c0.4-0.3,0.5-0.9,0.2-1.3l-2.7-4.5c-0.3-0.5-0.9-0.6-1.4-0.4l-3.7,1.8l-3.8,2.2c-0.2,0.1-0.4,0.4-0.5,0.7c-0.1,0.3,0,0.6,0.1,0.8
		L146.7,106.4z"/>
	<path class="st0" d="M128,122.8c0.2,0.2,0.5,0.3,0.8,0.3c0.2,0,0.5-0.1,0.7-0.3l3.4-3c0.1-0.1,0.1-0.1,0.2-0.2l2.7-3.7
		c0.3-0.4,0.3-1-0.1-1.3l-3.4-3.7c-0.3-0.4-0.9-0.5-1.4-0.2l-2.8,1.9c-0.1,0.1-0.1,0.1-0.2,0.2l-3.8,4.4c-0.4,0.4-0.3,1,0,1.4
		L128,122.8z"/>
</g>
</svg>
