<?xml version="1.0" encoding="utf-8"?>
<!-- Generator: Adobe Illustrator 20.0.0, SVG Export Plug-In . SVG Version: 6.00 Build 0)  -->
<svg version="1.1" id="Layer_2" xmlns="http://www.w3.org/2000/svg" xmlns:xlink="http://www.w3.org/1999/xlink" x="0px" y="0px"
	 viewBox="0 0 270 268" style="enable-background:new 0 0 270 268;" xml:space="preserve">
<style type="text/css">
	.st0{fill:#FFFFFF;}
</style>
<circle class="st0" cx="199.5" cy="69.9" r="14.2"/>
<path class="st0" d="M135.5,72.5C101.5,72.5,74,100,74,134s27.5,61.5,61.5,61.5c34,0,61.5-27.5,61.5-61.5S169.5,72.5,135.5,72.5z
	 M135.6,174.4c-22.3,0-40.3-18.1-40.3-40.3c0-22.3,18.1-40.3,40.3-40.3c22.3,0,40.3,18.1,40.3,40.3
	C175.9,156.3,157.8,174.4,135.6,174.4z"/>
<path class="st0" d="M254.7,87.7c-1.7-69.7-58.3-72-68-72.7c-9.7-0.7-44.7-1-48.7-1s-45-0.3-62,1.7C25.3,24.3,16.7,62,16,91
	c0,0-2.3,75.3,1,103c8.7,56.3,56.3,58.3,68.3,59s41.3,2,100.3,0c64.3-2.7,68-54.3,69-72.3S255.3,117.3,254.7,87.7z M220,218.7
	c-15.3,13.3-28,13-55.7,13.7c-27.7,0.7-72.3,0-72.3,0s-47.7,4-53.7-40.7c-2.3-38.5-1-103.3-1-103.3C38,69.7,41.7,42,79.7,37
	c20.3-2.7,65.3-1.7,88.3-1.7s45.3,2,56.7,19.7c11.3,17.7,9.3,44.3,9.3,56.3s0.3,53,0.3,58.7S235.3,205.3,220,218.7z"/>
</svg>
