<?xml version="1.0" encoding="utf-8"?>
<!-- Generator: Adobe Illustrator 20.0.0, SVG Export Plug-In . SVG Version: 6.00 Build 0)  -->
<svg version="1.1" id="Layer_2" xmlns="http://www.w3.org/2000/svg" xmlns:xlink="http://www.w3.org/1999/xlink" x="0px" y="0px"
	 viewBox="0 0 280 282" style="enable-background:new 0 0 280 282;" xml:space="preserve">
<style type="text/css">
	.st0{fill:#FFFFFF;}
</style>
<path class="st0" d="M164.6,49.4c0,0,24.2-24,27.7-27.3s16-8.4,27.1,2.5c6.8,6.6,28.6,28.5,32.3,31.8c4.7,4.3,17.2,18.8,1.9,33.9
	c-12.8,12.6-23.9,24-23.9,24L164.6,49.4z"/>
<path class="st0" d="M154.6,59.5l-130,130v64.8h64.9l129.9-129.9L154.6,59.5z M81.7,234.3l-17.4,0.4l-0.2-20.2H44.3l0.2-16.8
	l14.2-14.3l36.8,36.8L81.7,234.3z M77.1,177c-1.5,1.4-4.1,1.2-5.3,0.1c-1.2-1.1-1.2-3.7,0.1-5.1c1.3-1.5,82.3-82.6,84-84.1
	c1.6-1.5,4.1-2.7,6.2-0.9c1.5,1.4,1.6,3.6-1.2,6.5C157.9,96.3,78.7,175.6,77.1,177z"/>
</svg>
